<svg xmlns="http://www.w3.org/2000/svg" xmlns:xlink="http://www.w3.org/1999/xlink" viewBox="0 0 2050.98 1981.84"><defs><clipPath id="a" transform="translate(17.17 -161.81)"><rect x="-735.18" y="-424.27" width="3342" height="2863" fill="none"/></clipPath><linearGradient id="b" x1="-61.66" y1="1844.33" x2="-163.56" y2="1644.57" gradientTransform="translate(1411.93 -3144.09) scale(2.98 2.63)" gradientUnits="userSpaceOnUse"><stop offset="0" stop-color="#875017"/><stop offset="0.08" stop-color="#895317"/><stop offset="0.13" stop-color="#915b17"/><stop offset="0.17" stop-color="#9e6a16"/><stop offset="0.21" stop-color="#af7e15"/><stop offset="0.24" stop-color="#c79814"/><stop offset="0.25" stop-color="#c99b14"/><stop offset="0.32" stop-color="#ca9c16"/><stop offset="0.35" stop-color="#cda11d"/><stop offset="0.37" stop-color="#d1a928"/><stop offset="0.39" stop-color="#d8b439"/><stop offset="0.4" stop-color="#e1c34f"/><stop offset="0.41" stop-color="#ecd66b"/><stop offset="0.42" stop-color="#f9eb8a"/><stop offset="0.42" stop-color="#fdf193"/><stop offset="0.48" stop-color="#f8ea8b"/><stop offset="0.56" stop-color="#ebd774"/><stop offset="0.66" stop-color="#d6b74e"/><stop offset="0.78" stop-color="#b98b1b"/><stop offset="0.79" stop-color="#b78817"/><stop offset="1" stop-color="#c99b14"/></linearGradient><linearGradient id="c" x1="-34.31" y1="1671.15" x2="54.84" y2="1496.39" gradientTransform="translate(1411.93 -3144.09) scale(2.98 2.63)" gradientUnits="userSpaceOnUse"><stop offset="0" stop-color="#875017"/><stop offset="0.08" stop-color="#895317"/><stop offset="0.12" stop-color="#915b17"/><stop offset="0.16" stop-color="#9e6a16"/><stop offset="0.2" stop-color="#af7e15"/><stop offset="0.23" stop-color="#c79814"/><stop offset="0.23" stop-color="#c99b14"/><stop offset="0.32" stop-color="#ca9c16"/><stop offset="0.35" stop-color="#cda11d"/><stop offset="0.37" stop-color="#d1a928"/><stop offset="0.38" stop-color="#d8b439"/><stop offset="0.4" stop-color="#e1c34f"/><stop offset="0.41" stop-color="#ecd66b"/><stop offset="0.42" stop-color="#f9eb8a"/><stop offset="0.42" stop-color="#fdf193"/><stop offset="0.48" stop-color="#f8ea8b"/><stop offset="0.56" stop-color="#ebd774"/><stop offset="0.66" stop-color="#d6b74e"/><stop offset="0.78" stop-color="#b98b1b"/><stop offset="0.79" stop-color="#b78817"/><stop offset="1" stop-color="#c99b14"/></linearGradient><linearGradient id="d" x1="-199.7" y1="1671.65" x2="-289.15" y2="1496.27" xlink:href="#b"/><linearGradient id="e" x1="1167.75" y1="855.15" x2="916.2" y2="162.95" gradientTransform="matrix(1, 0, 0, 1, 0, 0)" xlink:href="#b"/><linearGradient id="f" x1="-367.68" y1="1555.62" x2="-121.56" y2="1555.62" xlink:href="#b"/><linearGradient id="g" x1="-113.06" y1="1555.62" x2="133.59" y2="1555.62" xlink:href="#b"/><radialGradient id="h" cx="914.37" cy="1054.63" r="16.21" gradientTransform="translate(-17797.59 -19876.39) scale(20.51 19.82)" gradientUnits="userSpaceOnUse"><stop offset="0" stop-color="#875017"/><stop offset="0.06" stop-color="#895317"/><stop offset="0.1" stop-color="#915b17"/><stop offset="0.13" stop-color="#9e6a16"/><stop offset="0.16" stop-color="#af7e15"/><stop offset="0.18" stop-color="#c79814"/><stop offset="0.18" stop-color="#c99b14"/><stop offset="0.29" stop-color="#ca9c16"/><stop offset="0.32" stop-color="#cda11d"/><stop offset="0.35" stop-color="#d1a928"/><stop offset="0.37" stop-color="#d8b439"/><stop offset="0.39" stop-color="#e1c34f"/><stop offset="0.41" stop-color="#ecd66b"/><stop offset="0.42" stop-color="#f9eb8a"/><stop offset="0.42" stop-color="#fdf193"/><stop offset="0.48" stop-color="#f8ea8b"/><stop offset="0.56" stop-color="#ebd774"/><stop offset="0.66" stop-color="#d6b74e"/><stop offset="0.78" stop-color="#b98b1b"/><stop offset="0.79" stop-color="#b78817"/><stop offset="1" stop-color="#c99b14"/></radialGradient><radialGradient id="i" cx="922.2" cy="1064.83" r="16.43" xlink:href="#h"/><radialGradient id="j" cx="900.65" cy="1086.57" r="13.69" xlink:href="#h"/><radialGradient id="k" cx="922.2" cy="1086.57" r="16.18" xlink:href="#h"/><radialGradient id="l" cx="890.4" cy="1074.56" r="13.9" xlink:href="#h"/><radialGradient id="m" cx="880.66" cy="1074.56" r="10.99" xlink:href="#h"/><radialGradient id="n" cx="890.4" cy="1054.63" r="15.95" xlink:href="#h"/><radialGradient id="o" cx="915.76" cy="1037.29" r="14.39" xlink:href="#h"/><radialGradient id="p" cx="942.01" cy="1037.29" r="13.1" xlink:href="#h"/><radialGradient id="q" cx="950.79" cy="1064.41" r="13" xlink:href="#h"/><radialGradient id="r" cx="942.01" cy="1064.41" r="14.2" xlink:href="#h"/><radialGradient id="s" cx="943.41" cy="1036.87" r="12.2" xlink:href="#h"/><radialGradient id="t" cx="958.58" cy="1040.52" r="9.56" xlink:href="#h"/><radialGradient id="u" cx="959.99" cy="1063.46" r="10.51" xlink:href="#h"/><radialGradient id="v" cx="950.79" cy="1088.13" r="10.56" xlink:href="#h"/><radialGradient id="w" cx="951.82" cy="1088.13" r="10.06" xlink:href="#h"/><radialGradient id="x" cx="928.13" cy="1090.06" r="12.51" xlink:href="#h"/><radialGradient id="y" cx="928.13" cy="1103.07" r="10.49" xlink:href="#h"/><radialGradient id="z" cx="909.17" cy="1104.04" r="10.67" xlink:href="#h"/><radialGradient id="aa" cx="900.65" cy="1095.55" r="10.61" xlink:href="#h"/><radialGradient id="ab" cx="884.22" cy="1091.44" r="10.66" xlink:href="#h"/><radialGradient id="ac" cx="873.72" cy="1065.78" r="10.52" xlink:href="#h"/><radialGradient id="ad" cx="875.77" cy="1047.11" r="10.12" xlink:href="#h"/><radialGradient id="ae" cx="888.34" cy="1047.11" r="12.59" xlink:href="#h"/><radialGradient id="af" cx="892.26" cy="1026.66" r="10.83" xlink:href="#h"/><radialGradient id="ag" cx="892.26" cy="1025.12" r="10.15" xlink:href="#h"/><radialGradient id="ah" cx="915.76" cy="1026.66" r="13.22" xlink:href="#h"/><radialGradient id="ai" cx="917.63" cy="1019.6" r="10.37" xlink:href="#h"/><radialGradient id="aj" cx="940.94" cy="1021.63" r="9.48" xlink:href="#h"/><radialGradient id="ak" cx="928.65" cy="461.89" r="18.9" gradientTransform="translate(-599.02 561.69) scale(1.46 1.42)" xlink:href="#h"/><radialGradient id="al" cx="870.74" cy="-37.68" r="18.9" gradientTransform="translate(-599.02 561.69) scale(1.46 1.42)" xlink:href="#h"/><radialGradient id="am" cx="1272.31" cy="150.13" r="18.9" gradientTransform="translate(-599.02 561.69) scale(1.46 1.42)" xlink:href="#h"/><radialGradient id="an" cx="1433.69" cy="559.19" r="18.9" gradientTransform="translate(-616.19 723.5) scale(1.46 1.42)" xlink:href="#h"/><radialGradient id="ao" cx="1065.58" cy="855.11" r="18.9" gradientTransform="translate(-616.19 723.5) scale(1.46 1.42)" xlink:href="#h"/><radialGradient id="ap" cx="693.15" cy="686.71" r="18.9" gradientTransform="translate(-616.19 723.5) scale(1.46 1.42)" xlink:href="#h"/><radialGradient id="as" cx="543.38" cy="294.65" r="18.9" gradientTransform="translate(-616.19 723.5) scale(1.46 1.42)" xlink:href="#h"/><radialGradient id="av" cx="506.06" cy="571.82" r="18.9" gradientTransform="translate(-599.02 561.69) scale(1.46 1.42)" xlink:href="#h"/><radialGradient id="aw" cx="1311.26" cy="-210.38" r="18.9" gradientTransform="translate(-616.19 723.5) scale(1.46 1.42)" xlink:href="#h"/><radialGradient id="ay" cx="1644.69" cy="138.44" r="18.9" gradientTransform="translate(-616.19 723.5) scale(1.46 1.42)" xlink:href="#h"/><radialGradient id="az" cx="1729.02" cy="532.62" r="18.9" gradientTransform="translate(-616.19 723.5) scale(1.46 1.42)" xlink:href="#h"/><radialGradient id="ba" cx="1604.97" cy="-153.63" r="18.9" gradientTransform="translate(-599.02 561.69) scale(1.46 1.42)" xlink:href="#h"/><radialGradient id="bc" cx="1775.72" cy="183.44" r="18.9" gradientTransform="translate(-616.19 723.5) scale(1.46 1.42)" xlink:href="#h"/><radialGradient id="be" cx="1462.54" cy="828" r="18.9" gradientTransform="translate(-599.02 561.69) scale(1.46 1.42)" xlink:href="#h"/><radialGradient id="bf" cx="1563.2" cy="772.18" r="18.9" gradientTransform="translate(-616.19 723.5) scale(1.46 1.42)" xlink:href="#h"/><radialGradient id="bi" cx="1204.69" cy="949.89" r="18.9" gradientTransform="translate(-616.19 723.5) scale(1.46 1.42)" xlink:href="#h"/><radialGradient id="bk" cx="792.86" cy="881.14" r="18.9" gradientTransform="translate(-616.19 723.5) scale(1.46 1.42)" xlink:href="#h"/><radialGradient id="bo" cx="461.43" cy="164.18" r="18.9" gradientTransform="translate(-616.19 723.5) scale(1.46 1.42)" xlink:href="#h"/><radialGradient id="bp" cx="600.78" cy="-80.5" r="18.9" gradientTransform="translate(-616.19 723.5) scale(1.46 1.42)" xlink:href="#h"/><radialGradient id="br" cx="923.08" cy="-319.83" r="18.9" gradientTransform="translate(-599.02 561.69) scale(1.46 1.42)" xlink:href="#h"/><radialGradient id="bu" cx="672.53" cy="-171.92" r="18.9" gradientTransform="translate(-616.19 723.5) scale(1.46 1.42)" xlink:href="#h"/><radialGradient id="bx" cx="1282.04" cy="-344.44" r="18.9" gradientTransform="translate(-616.19 723.5) scale(1.46 1.42)" xlink:href="#h"/><linearGradient id="bz" x1="478.83" y1="1144.35" x2="1155.02" y2="1144.35" gradientTransform="matrix(1, 0, 0, 1, 0, 0)" xlink:href="#b"/><linearGradient id="ca" x1="830.97" y1="1173.1" x2="1606.54" y2="1173.1" gradientTransform="matrix(1, 0, 0, 1, 0, 0)" xlink:href="#b"/><linearGradient id="cb" x1="614.94" y1="1713.97" x2="1238.96" y2="1713.97" gradientTransform="matrix(1, 0, 0, 1, 0, 0)" xlink:href="#b"/><linearGradient id="cc" x1="830.97" y1="1653.85" x2="1606.54" y2="1653.85" gradientTransform="matrix(1, 0, 0, 1, 0, 0)" xlink:href="#b"/><linearGradient id="cd" x1="189.2" y1="1672.7" x2="830.97" y2="1672.7" gradientTransform="matrix(1, 0, 0, 1, 0, 0)" xlink:href="#b"/><linearGradient id="ce" x1="189.2" y1="1672.7" x2="614.94" y2="1672.7" gradientTransform="matrix(1, 0, 0, 1, 0, 0)" xlink:href="#b"/><linearGradient id="cf" x1="189.2" y1="1144.36" x2="830.97" y2="1144.36" gradientTransform="matrix(1, 0, 0, 1, 0, 0)" xlink:href="#b"/><linearGradient id="cg" x1="478.83" y1="610.49" x2="1155.02" y2="610.49" gradientTransform="matrix(1, 0, 0, 1, 0, 0)" xlink:href="#b"/><linearGradient id="ch" x1="1016.5" y1="610.48" x2="1681.91" y2="610.48" gradientTransform="matrix(1, 0, 0, 1, 0, 0)" xlink:href="#b"/><linearGradient id="ci" x1="1606.54" y1="1010.82" x2="2015.1" y2="1010.82" gradientTransform="matrix(1, 0, 0, 1, 0, 0)" xlink:href="#b"/><linearGradient id="cj" x1="1155.02" y1="1010.82" x2="1681.91" y2="1010.82" gradientTransform="matrix(1, 0, 0, 1, 0, 0)" xlink:href="#b"/><linearGradient id="ck" x1="1016.5" y1="473.48" x2="1681.91" y2="473.48" gradientTransform="matrix(1, 0, 0, 1, 0, 0)" xlink:href="#b"/><linearGradient id="cl" x1="1467.63" y1="473.48" x2="1893.77" y2="473.48" gradientTransform="matrix(1, 0, 0, 1, 0, 0)" xlink:href="#b"/><linearGradient id="cm" x1="1681.91" y1="915.91" x2="2015.1" y2="915.91" gradientTransform="matrix(1, 0, 0, 1, 0, 0)" xlink:href="#b"/><linearGradient id="cn" x1="1606.54" y1="1441.77" x2="2015.1" y2="1441.77" gradientTransform="matrix(1, 0, 0, 1, 0, 0)" xlink:href="#b"/><linearGradient id="co" x1="1792.73" y1="1441.77" x2="2015.1" y2="1441.77" gradientTransform="matrix(1, 0, 0, 1, 0, 0)" xlink:href="#b"/><linearGradient id="cp" x1="1238.96" y1="1653.85" x2="1792.73" y2="1653.85" gradientTransform="matrix(1, 0, 0, 1, 0, 0)" xlink:href="#b"/><linearGradient id="cq" x1="1238.96" y1="1863.44" x2="1792.73" y2="1863.44" gradientTransform="matrix(1, 0, 0, 1, 0, 0)" xlink:href="#b"/><linearGradient id="cr" x1="862.49" y1="2038.86" x2="1489.22" y2="2038.86" gradientTransform="matrix(1, 0, 0, 1, 0, 0)" xlink:href="#b"/><linearGradient id="cs" x1="614.94" y1="2016.2" x2="1238.96" y2="2016.2" gradientTransform="matrix(1, 0, 0, 1, 0, 0)" xlink:href="#b"/><linearGradient id="ct" x1="285.14" y1="1983.83" x2="862.49" y2="1983.83" gradientTransform="matrix(1, 0, 0, 1, 0, 0)" xlink:href="#b"/><linearGradient id="cu" x1="1.54" y1="1570.59" x2="285.14" y2="1570.59" gradientTransform="matrix(1, 0, 0, 1, 0, 0)" xlink:href="#b"/><linearGradient id="cv" x1="1.54" y1="1164.25" x2="189.2" y2="1164.25" gradientTransform="matrix(1, 0, 0, 1, 0, 0)" xlink:href="#b"/><linearGradient id="cw" x1="69.2" y1="1125.74" x2="478.83" y2="1125.74" gradientTransform="matrix(1, 0, 0, 1, 0, 0)" xlink:href="#b"/><linearGradient id="cx" x1="69.2" y1="642.43" x2="478.83" y2="642.43" gradientTransform="matrix(1, 0, 0, 1, 0, 0)" xlink:href="#b"/><linearGradient id="cy" x1="69.2" y1="642.43" x2="401.71" y2="642.43" gradientTransform="matrix(1, 0, 0, 1, 0, 0)" xlink:href="#b"/><linearGradient id="cz" x1="401.71" y1="581.73" x2="1016.5" y2="581.73" gradientTransform="matrix(1, 0, 0, 1, 0, 0)" xlink:href="#b"/><linearGradient id="da" x1="401.71" y1="287.4" x2="1016.5" y2="287.4" gradientTransform="matrix(1, 0, 0, 1, 0, 0)" xlink:href="#b"/><linearGradient id="db" x1="902.41" y1="265.22" x2="1467.63" y2="265.22" gradientTransform="matrix(1, 0, 0, 1, 0, 0)" xlink:href="#b"/><radialGradient id="dc" cx="987.89" cy="530.57" r="12.19" gradientTransform="translate(-616.19 723.5) scale(1.46 1.42)" xlink:href="#b"/><radialGradient id="dd" cx="747.51" cy="62.89" r="12.19" gradientTransform="translate(-616.19 723.5) scale(1.46 1.42)" xlink:href="#b"/><radialGradient id="de" cx="1209.11" cy="103.43" r="12.19" gradientTransform="translate(-616.19 723.5) scale(1.46 1.42)" xlink:href="#b"/><radialGradient id="dh" cx="1517.33" cy="445.79" r="12.19" gradientTransform="translate(-616.19 723.5) scale(1.46 1.42)" xlink:href="#b"/><radialGradient id="dj" cx="1266.41" cy="866.14" r="12.19" gradientTransform="translate(-616.19 723.5) scale(1.46 1.42)" xlink:href="#b"/><radialGradient id="dk" cx="840.42" cy="834.19" r="12.19" gradientTransform="translate(-616.19 723.5) scale(1.46 1.42)" xlink:href="#b"/><radialGradient id="dp" cx="549.79" cy="504.32" r="12.19" gradientTransform="translate(-616.19 723.5) scale(1.46 1.42)" xlink:href="#b"/><radialGradient id="dt" cx="615.29" cy="788.54" r="12.19" gradientTransform="translate(-616.19 723.5) scale(1.46 1.42)" xlink:href="#b"/><radialGradient id="dz" cx="1114.55" cy="-262.81" r="12.19" gradientTransform="translate(-616.19 723.5) scale(1.46 1.42)" xlink:href="#b"/><radialGradient id="ec" cx="1568.78" cy="-40.62" r="12.19" gradientTransform="translate(-616.19 723.5) scale(1.46 1.42)" xlink:href="#b"/><radialGradient id="ef" cx="1796.23" cy="314.62" r="12.19" gradientTransform="translate(-616.19 723.5) scale(1.46 1.42)" xlink:href="#b"/><radialGradient id="ek" cx="1422.51" cy="-311.95" r="12.19" gradientTransform="translate(-616.19 723.5) scale(1.46 1.42)" xlink:href="#b"/><radialGradient id="eo" cx="1713.41" cy="-43.31" r="12.19" gradientTransform="translate(-616.19 723.5) scale(1.46 1.42)" xlink:href="#b"/><radialGradient id="eu" cx="1644.43" cy="698.25" r="12.19" gradientTransform="translate(-616.19 723.5) scale(1.46 1.42)" xlink:href="#b"/><radialGradient id="ex" cx="1722.28" cy="607.84" r="12.19" gradientTransform="translate(-616.19 723.5) scale(1.46 1.42)" xlink:href="#b"/><radialGradient id="fd" cx="1437.24" cy="909.24" r="12.19" gradientTransform="translate(-616.19 723.5) scale(1.46 1.42)" xlink:href="#b"/><radialGradient id="fg" cx="1009.41" cy="988.72" r="12.19" gradientTransform="translate(-616.19 723.5) scale(1.46 1.42)" xlink:href="#b"/><radialGradient id="fp" cx="421.69" cy="405.98" r="12.19" gradientTransform="translate(-616.19 723.5) scale(1.46 1.42)" xlink:href="#b"/><radialGradient id="fs" cx="467.88" cy="117.2" r="12.19" gradientTransform="translate(-616.19 723.5) scale(1.46 1.42)" xlink:href="#b"/><radialGradient id="fw" cx="694.86" cy="-231.53" r="12.19" gradientTransform="translate(-616.19 723.5) scale(1.46 1.42)" xlink:href="#b"/><radialGradient id="gb" cx="504.38" cy="2.28" r="12.19" gradientTransform="translate(-616.19 723.5) scale(1.46 1.42)" xlink:href="#b"/><radialGradient id="gh" cx="1036.66" cy="-383.44" r="12.19" gradientTransform="translate(-616.19 723.5) scale(1.46 1.42)" xlink:href="#b"/></defs><polygon points="343.49 1448.56 1076.71 1199.04 1809.05 1451.02 1075.82 1700.54 343.49 1448.56" fill="url(#b)"/><path d="M327,1612.84,400.08,1588l175.46-59.71,211.46-72,182.81-62.21,60.48-20.58c9.44-3.21,19.54-5.77,28.69-9.76,1.94-.85-.9-1,1.32.07,3.09,1.56,6.86,2.36,10.12,3.48l46.07,15.85,165.84,57.06,210.91,72.57,190,65.36,103.12,35.48,4.88,1.68v-4.94l-73.09,24.87-175.46,59.71-211.45,72-182.82,62.21-60.48,20.58c-9.44,3.21-19.54,5.77-28.69,9.76-1.93.85.9,1-1.32-.07-3.09-1.56-6.86-2.36-10.12-3.48l-46.06-15.85L835.86,1783,625,1710.42l-190-65.36-103.12-35.48L327,1607.9c-3.13-1.07-4.47,3.87-1.36,4.94l73,25.12,175.25,60.29,211.87,72.9,182.86,62.92,60.35,20.76c9.06,3.12,18.51,7.59,27.89,9.6,4.42,1,9.49-2,13.67-3.42l45.33-15.43,165.94-56.47,211.09-71.83,190.53-64.84L1787.67,1617l4.89-1.66a2.59,2.59,0,0,0,0-4.94l-73-25.12L1544.32,1525l-211.87-72.9-182.87-62.92-60.35-20.76c-9-3.12-18.51-7.59-27.89-9.6-4.42-1-9.49,2-13.67,3.42l-45.32,15.43-166,56.47-211.08,71.83-190.53,64.84-104.27,35.48-4.88,1.66C322.53,1609,323.86,1613.91,327,1612.84Z" transform="translate(17.17 -161.81)" fill="#161612"/><polygon points="1808.25 1403.4 1808.61 1204.17 1260.86 1015.71 1261.08 889.21 1808.83 1077.67 1809.15 901.9 1076.81 649.93 1075.91 1151.42 1808.25 1403.4" fill="url(#c)"/><path d="M1793.64,1565.21l.12-67.4.19-107.32,0-24.51a2.64,2.64,0,0,0-1.88-2.47l-14.61-5-40-13.75-58.87-20.26-71.81-24.71-78.65-27.06-79.76-27.44-74-25.48-62.59-21.54-45.21-15.55-13.95-4.8a69.55,69.55,0,0,0-7.36-2.54,7.65,7.65,0,0,1-.92-.31l1.88,2.47.2-111,0-15.45-3.24,2.47,14.6,5,40,13.75,58.87,20.25,71.81,24.71,78.66,27.06,79.76,27.45,74,25.47,62.6,21.54,45.21,15.56c7.08,2.43,14.14,5.16,21.31,7.33.31.09.61.21.92.31a2.58,2.58,0,0,0,3.24-2.46l.11-59.36.17-94.64,0-21.78a2.62,2.62,0,0,0-1.89-2.46l-19.69-6.78-53.12-18.28-79.07-27.2L1545,976l-105.64-36.35-105.94-36.45L1233.94,869l-83.49-28.73L1090,819.49c-9.48-3.26-18.92-6.8-28.49-9.8l-1.21-.42a2.58,2.58,0,0,0-3.24,2.47L1057,861.6l-.22,119.75-.26,144.89-.22,125.26c0,20.26-.71,40.63-.11,60.88,0,.28,0,.57,0,.85a2.64,2.64,0,0,0,1.88,2.47l19.69,6.78,53.13,18.28,79.06,27.2,95.82,33,105.65,36.35,105.94,36.45,99.43,34.21,83.48,28.72,60.44,20.8c9.48,3.26,18.92,6.8,28.49,9.8l1.21.42c3.12,1.07,4.46-3.87,1.36-4.94l-19.69-6.78-53.13-18.28-79.06-27.2-95.82-33-105.65-36.35-105.94-36.45L1233,1370.5l-83.49-28.73L1089.12,1321l-18.67-6.42c-3.23-1.11-6.5-2.53-9.82-3.38-.41-.1-.81-.28-1.21-.42l1.88,2.47.09-49.86.21-119.75.26-144.89.23-125.26.07-41.44,0-12.65c0-2.15.37-4.66,0-6.79a4.83,4.83,0,0,1,0-.85l-3.24,2.47,19.69,6.77,53.13,18.28,79.06,27.21,95.82,33,105.65,36.35,105.93,36.45,99.44,34.21,83.48,28.72,60.43,20.8,18.67,6.42c3.24,1.11,6.51,2.53,9.82,3.38.41.1.81.28,1.21.41l-1.88-2.47-.1,59.36-.17,94.64,0,21.78,3.24-2.47-14.6-5-40-13.75L1678.9,1198l-71.81-24.7-78.66-27.07-79.76-27.44-74-25.48-62.6-21.53-45.21-15.56c-7.08-2.44-14.13-5.17-21.31-7.33-.31-.09-.61-.21-.92-.32a2.58,2.58,0,0,0-3.24,2.47l-.2,111,0,15.45A2.62,2.62,0,0,0,1243,1180l14.6,5,40,13.75,58.87,20.26,71.81,24.71,78.65,27.06,79.76,27.44,74,25.48,62.59,21.54,45.21,15.55,14,4.8a67.3,67.3,0,0,0,7.36,2.53c.31.07.62.22.92.32l-1.88-2.47-.12,67.39-.19,107.33,0,24.51C1788.51,1568.5,1793.63,1568.51,1793.64,1565.21Z" transform="translate(17.17 -161.81)" fill="#161612"/><polygon points="316.67 1203.44 316.31 1402.66 1049.53 1153.14 1050.43 651.65 317.2 901.17 316.89 1076.94 865.31 890.32 865.08 1016.81 316.67 1203.44" fill="url(#d)"/><path d="M296.93,1365.25l-.12,67.47-.19,107.1,0,24.65a2.58,2.58,0,0,0,3.24,2.47l19.59-6.67,53.33-18.14,78.87-26.84,96.24-32.76,105.43-35.87,106.43-36.22L859,1376.66l83.89-28.54,60.34-20.54c9.54-3.24,19.1-6.42,28.62-9.73l1.23-.43a2.62,2.62,0,0,0,1.88-2.47l.09-50,.22-119.79.26-144.83.22-125.42c0-20.15.7-40.41.11-60.55,0-.28,0-.56,0-.85a2.58,2.58,0,0,0-3.24-2.47L1013,817.66l-53.33,18.15-78.87,26.84L784.54,895.4,679.12,931.28,572.69,967.49l-99.25,33.78-83.89,28.55-60.34,20.53c-9.54,3.25-19.1,6.43-28.62,9.74l-1.24.42a2.64,2.64,0,0,0-1.88,2.47l-.1,59.51-.17,94.45,0,21.81a2.58,2.58,0,0,0,3.24,2.47l14.65-5,39.86-13.57,59-20.07,72-24.48,78.82-26.83,79.59-27.08L718.48,1099l63-21.44,45.08-15.34,14-4.77c2.35-.8,5.1-1.37,7.32-2.49a7.1,7.1,0,0,1,.92-.31l-3.24-2.47-.2,110.64,0,15.85,1.88-2.47-14.65,5-39.86,13.56-59,20.07-72,24.49L583,1266.08l-79.58,27.08-74.23,25.26-63,21.44-45.08,15.34c-7.11,2.42-14.27,4.75-21.34,7.27l-.92.31c-3.1,1-1.77,6,1.36,4.94l14.65-5,39.87-13.56,59-20.07,72-24.49,78.83-26.82L644,1250.7l74.22-25.26,63-21.43,45.08-15.34c7.11-2.42,14.27-4.75,21.35-7.27l.91-.31a2.63,2.63,0,0,0,1.88-2.47l.2-110.65,0-15.84a2.58,2.58,0,0,0-3.24-2.47l-14.65,5-39.87,13.57-59,20.06-72,24.49-78.83,26.83-79.59,27.08-74.22,25.26-63,21.44-45.08,15.34-14,4.77c-2.36.8-5.1,1.36-7.33,2.49a7.51,7.51,0,0,1-.91.31l3.24,2.47.11-59.51.16-94.45,0-21.81-1.88,2.47,19.6-6.67,53.32-18.15,78.88-26.84L548.75,981l105.43-35.87L760.61,909l99.25-33.78,83.89-28.54,60.34-20.54,18.88-6.42c3.2-1.09,6.65-1.95,9.74-3.32.39-.17.83-.28,1.23-.42l-3.24-2.47-.09,50.06-.21,119.79-.26,144.83-.23,125.42-.07,40.9,0,12.9c0,2.14-.36,4.62,0,6.75a4.71,4.71,0,0,1,0,.84l1.88-2.46-19.59,6.66-53.33,18.15-78.87,26.84-96.24,32.75-105.43,35.88L571.79,1469l-99.25,33.77-83.89,28.55-60.34,20.53-18.88,6.43c-3.2,1.09-6.65,1.94-9.74,3.31-.39.18-.83.28-1.23.42l3.24,2.47.12-67.47.19-107.1,0-24.65C302.06,1362,296.94,1362,296.93,1365.25Z" transform="translate(17.17 -161.81)" fill="#161612"/><polygon points="1776.68 516.55 1043.1 765.08 311.12 512.13 1044.7 263.59 1776.68 516.55" fill="url(#e)"/><path d="M1758.83,675.89l-73.13,24.77-175.54,59.48L1298.6,831.81l-182.9,62-60.51,20.5c-9.45,3.2-19.54,5.75-28.7,9.72-1.94.84.89,1-1.33-.07-3.08-1.57-6.85-2.37-10.11-3.5l-46-15.91L803.24,847.23l-210.8-72.85L402.58,708.77,299.51,673.15l-4.88-1.68v4.94l73.12-24.78L543.3,592.16l211.55-71.68,182.91-62L998.27,438c9.44-3.2,19.54-5.75,28.7-9.73,1.94-.84-.9-1.05,1.32.08,3.08,1.56,6.86,2.37,10.11,3.49l46,15.92,165.76,57.28L1461,577.91l189.86,65.61,103.06,35.62,4.89,1.69c3.12,1.08,4.46-3.87,1.36-4.94l-73-25.21-175.15-60.54L1300.3,517,1117.52,453.8,1057.21,433c-9-3.12-18.5-7.61-27.88-9.63-4.41-.95-9.5,2-13.68,3.41l-45.34,15.36-166,56.25L593.1,569.89,402.47,634.47,298.16,669.81l-4.89,1.66a2.59,2.59,0,0,0,0,4.94l73,25.21,175.16,60.53,211.77,73.18L935.93,898.5l60.32,20.84c9,3.13,18.5,7.61,27.88,9.64,4.41.95,9.49-2,13.68-3.41l45.34-15.36,166-56.25,211.19-71.55L1651,717.83l104.32-35.34,4.89-1.66C1763.29,679.78,1762,674.83,1758.83,675.89Z" transform="translate(17.17 -161.81)" fill="#161612"/><polygon points="317.62 575.31 316.98 774.53 864.45 963.73 864.05 1090.23 316.57 901.03 316 1076.8 1047.98 1329.76 1049.59 828.27 317.62 575.31" fill="url(#f)"/><path d="M297.88,737.12l-.21,67.39-.35,107.33-.08,24.51a2.64,2.64,0,0,0,1.88,2.47l14.65,5.06,39.85,13.77L412.56,978l71.91,24.85,78.77,27.22,79.5,27.47,73.81,25.51,62.68,21.66,45.08,15.58,14.08,4.86a66.11,66.11,0,0,0,7.29,2.52c.31.07.62.22.92.32l-1.88-2.47-.36,111-.05,15.45,3.25-2.47-14.65-5.06-39.85-13.77-58.94-20.37-71.92-24.85-78.76-27.22-79.5-27.48-73.81-25.5-62.68-21.66-45.08-15.58c-7.1-2.46-14.18-5.21-21.37-7.39-.31-.09-.62-.21-.92-.32a2.58,2.58,0,0,0-3.24,2.47l-.19,59.35-.31,94.64-.07,21.78a2.64,2.64,0,0,0,1.88,2.47l19.61,6.78,53.35,18.43,78.61,27.17,96.2,33.25,105.39,36.41,106,36.64L856.51,1434l83.8,29,60.06,20.75c9.5,3.29,19,6.83,28.54,9.87.41.13.81.28,1.22.42a2.59,2.59,0,0,0,3.24-2.47l.16-50,.38-119.94.47-145,.4-124.72c.07-20.29.77-40.7.2-61,0-.28,0-.57,0-.85a2.62,2.62,0,0,0-1.88-2.47l-19.6-6.78L960.14,962.4l-78.6-27.17L785.33,902,679.94,865.56l-106-36.63-99.18-34.28-83.8-29-60.06-20.75c-9.5-3.29-19-6.84-28.54-9.87-.41-.13-.81-.28-1.22-.42-3.12-1.08-4.46,3.87-1.36,4.94l19.61,6.78,53.35,18.43L451.33,792l96.2,33.25,105.39,36.41,106,36.64,99.19,34.28,83.8,29L1002,982.26c9.42,3.26,18.91,7.33,28.55,9.87.41.11.81.28,1.21.42l-1.88-2.47-.16,49.95-.39,119.94-.46,145-.41,124.72-.13,41.52,0,12.67c0,2.15-.38,4.67,0,6.8a6.17,6.17,0,0,1,0,.86l3.24-2.47-19.61-6.78-53.35-18.43-78.61-27.17-96.2-33.25-105.39-36.42-106-36.63-99.19-34.28-83.79-29-60.06-20.75c-9.42-3.26-18.9-7.33-28.54-9.87-.41-.11-.82-.28-1.22-.42l1.88,2.47.19-59.35.31-94.64.07-21.78-3.24,2.47,14.64,5.06,39.85,13.77,58.94,20.37,71.92,24.85,78.76,27.22,79.5,27.48,73.81,25.5,62.68,21.66,45.08,15.58c7.11,2.46,14.18,5.21,21.37,7.39.31.09.62.21.92.32a2.59,2.59,0,0,0,3.25-2.47l.35-111,.05-15.45a2.63,2.63,0,0,0-1.88-2.47L833.32,1118l-39.85-13.77-59-20.37L662.61,1059l-78.76-27.22-79.51-27.47-73.8-25.51-62.68-21.66-45.08-15.58-14.08-4.87a66.05,66.05,0,0,0-7.29-2.51c-.31-.07-.62-.22-.93-.32l1.88,2.47.22-67.4.35-107.32.07-24.51C303,733.83,297.89,733.82,297.88,737.12Z" transform="translate(17.17 -161.81)" fill="#161612"/><polygon points="1809.49 776.75 1810.13 577.52 1076.55 826.06 1074.93 1327.55 1808.52 1079.01 1809.08 903.24 1260.4 1089.13 1260.8 962.64 1809.49 776.75" fill="url(#g)"/><path d="M1794.88,938.56l.21-67.55.35-107.14.08-24.54a2.59,2.59,0,0,0-3.25-2.47l-19.65,6.66-53.48,18.12-78.8,26.7L1543.9,821,1438.26,856.8,1332,892.8l-99.1,33.58-84,28.47-60.41,20.47c-9.51,3.22-19,6.37-28.52,9.66l-1.24.42a2.64,2.64,0,0,0-1.88,2.47l-.16,50-.38,120-.47,145-.4,124.72c-.07,20.28-.77,40.67-.2,61,0,.28,0,.56,0,.85a2.59,2.59,0,0,0,3.24,2.47l19.65-6.66,53.49-18.12,78.8-26.7,96.44-32.67,105.64-35.79,106.26-36,99.1-33.57,84-28.47,60.41-20.47c9.5-3.22,19-6.37,28.52-9.66l1.23-.42a2.62,2.62,0,0,0,1.88-2.47l.2-59.51.3-94.45.07-21.81a2.58,2.58,0,0,0-3.24-2.47l-14.63,5-40,13.57-59,20-71.94,24.37-78.8,26.7-79.91,27.07-74.17,25.13-62.7,21.24-45.12,15.29-14.16,4.79c-2.35.8-5.09,1.36-7.31,2.48a7.1,7.1,0,0,1-.92.31l3.25,2.47.35-110.64,0-15.85-1.88,2.47,14.63-5,40-13.57,59-20,71.94-24.37,78.8-26.7,79.91-27.07,74.17-25.13,62.7-21.24,45.12-15.29c7.16-2.42,14.35-4.75,21.47-7.27l.92-.31c3.1-1.06,1.77-6-1.37-4.94L1777,941l-40,13.57-59,20L1606,999l-78.8,26.7-79.9,27.07-74.17,25.12-62.7,21.25-45.12,15.28c-7.16,2.43-14.36,4.75-21.48,7.28l-.91.31a2.62,2.62,0,0,0-1.88,2.47l-.35,110.64-.06,15.85a2.59,2.59,0,0,0,3.25,2.47l14.63-5,40-13.56,59-20,72-24.37,78.8-26.7,79.9-27.07,74.17-25.13,62.7-21.24,45.12-15.28,14.16-4.8c2.35-.8,5.09-1.36,7.32-2.48a6.49,6.49,0,0,1,.91-.31l-3.24-2.47-.19,59.51-.31,94.45-.07,21.81,1.88-2.47L1771,1245l-53.49,18.12-78.8,26.7-96.44,32.67-105.63,35.79-106.27,36-99.1,33.57-84,28.47-60.4,20.47-18.73,6.34c-3.22,1.09-6.69,1.95-9.8,3.32-.39.17-.83.28-1.23.42l3.24,2.47.16-50,.39-120,.46-145,.41-124.72.13-41.34,0-12.87c0-2.14.36-4.62,0-6.74a4.73,4.73,0,0,1,0-.84l-1.88,2.47,19.65-6.66,53.48-18.12,78.8-26.7,96.44-32.67,105.64-35.79,106.27-36,99.1-33.57,84-28.47,60.41-20.47,18.72-6.34c3.22-1.09,6.69-1.95,9.8-3.32.39-.17.83-.28,1.24-.42l-3.25-2.47-.21,67.55L1789.83,914l-.08,24.54C1789.74,941.85,1794.87,941.86,1794.88,938.56Z" transform="translate(17.17 -161.81)" fill="#161612"/><polyline points="901.54 1413.28 1034.19 1413.28 1048.59 1384.58 1107.21 1384.58 1122.28 1414.62 1180.72 1414.62 1198.96 1450.96 1198.96 1726.55" fill="none" stroke="#e2a817" stroke-miterlimit="10" stroke-width="4.03"/><polyline points="878.06 1438.85 1170.22 1438.85 1185.23 1468.77 1185.23 1681.22" fill="none" stroke="#e2a817" stroke-miterlimit="10" stroke-width="2.02"/><polyline points="1160.59 1465.01 1076.05 1465.01 1054.43 1508.07 966.58 1508.07 938.91 1563.19" fill="none" stroke="#e2a817" stroke-miterlimit="10" stroke-width="4.03"/><polyline points="1204.28 1413.28 1223.65 1374.68 1335.82 1374.68 1355.47 1413.83 1444.15 1413.83" fill="none" stroke="#e2a817" stroke-miterlimit="10" stroke-width="2.02"/><polyline points="1217.48 1438.85 1233.16 1407.61 1324.21 1407.61 1344.32 1447.68" fill="none" stroke="#e2a817" stroke-miterlimit="10" stroke-width="4.03"/><polyline points="1021.44 1465.01 842.9 1465.01 826.61 1497.47" fill="none" stroke="#e2a817" stroke-miterlimit="10" stroke-width="4.03"/><polyline points="1284.55 1323.42 1350.5 1323.42 1372.66 1367.57 1406.5 1367.57" fill="none" stroke="#e2a817" stroke-miterlimit="10" stroke-width="4.03"/><polyline points="1160.59 1497.47 1088.87 1497.47 1047.55 1579.8" fill="none" stroke="#e2a817" stroke-miterlimit="10" stroke-width="2.02"/><polyline points="735.26 1376.33 680.16 1376.33 610.05 1516 554.97 1516" fill="none" stroke="#e2a817" stroke-miterlimit="10" stroke-width="2.02"/><polyline points="806.79 1407.61 691.13 1407.61 659.71 1470.21" fill="none" stroke="#e2a817" stroke-miterlimit="10" stroke-width="4.03"/><line x1="1217.48" y1="1497.47" x2="1217.48" y2="1768.4" fill="none" stroke="#e2a817" stroke-miterlimit="10" stroke-width="4.03"/><polyline points="1241.98 1470.21 1304.12 1470.21 1352.26 1566.12 1406.5 1566.12" fill="none" stroke="#e2a817" stroke-miterlimit="10" stroke-width="4.03"/><polyline points="1324.21 1458.03 1344.77 1498.99 1420.57 1498.99 1468.03 1593.54" fill="none" stroke="#e2a817" stroke-miterlimit="10" stroke-width="2.02"/><ellipse cx="1213.75" cy="1443.93" rx="4.12" ry="8.21" fill="none" stroke="#e2a817" stroke-miterlimit="10" stroke-width="4.03"/><ellipse cx="1410.91" cy="1565.69" rx="4.12" ry="8.21" fill="none" stroke="#e2a817" stroke-miterlimit="10" stroke-width="4.03"/><ellipse cx="1239.9" cy="1531.55" rx="4.12" ry="8.21" fill="none" stroke="#e2a817" stroke-miterlimit="10" stroke-width="4.03"/><ellipse cx="1198.96" cy="1734.76" rx="4.12" ry="8.21" fill="none" stroke="#e2a817" stroke-miterlimit="10" stroke-width="4.03"/><ellipse cx="936.63" cy="1566.12" rx="4.12" ry="8.21" fill="none" stroke="#e2a817" stroke-miterlimit="10" stroke-width="4.03"/><ellipse cx="824.18" cy="1503.02" rx="4.12" ry="8.21" fill="none" stroke="#e2a817" stroke-miterlimit="10" stroke-width="4.03"/><ellipse cx="657.53" cy="1475.87" rx="4.12" ry="8.21" fill="none" stroke="#e2a817" stroke-miterlimit="10" stroke-width="4.03"/><ellipse cx="795.72" cy="1438.85" rx="4.12" ry="8.21" fill="none" stroke="#e2a817" stroke-miterlimit="10" stroke-width="4.03"/><ellipse cx="701.54" cy="1588.84" rx="4.12" ry="8.21" fill="none" stroke="#e2a817" stroke-miterlimit="10" stroke-width="4.03"/><ellipse cx="897.42" cy="1413.83" rx="4.12" ry="8.21" fill="none" stroke="#e2a817" stroke-miterlimit="10" stroke-width="4.03"/><ellipse cx="1217.48" cy="1489.26" rx="4.12" ry="8.21" fill="none" stroke="#e2a817" stroke-miterlimit="10" stroke-width="4.03"/><ellipse cx="1410.62" cy="1367.57" rx="4.12" ry="8.21" fill="none" stroke="#e2a817" stroke-miterlimit="10" stroke-width="4.03"/><ellipse cx="1284.55" cy="1323.42" rx="5.09" ry="10.13" fill="#8f8f8e" stroke="#e2a817" stroke-miterlimit="10" stroke-width="0.62"/><ellipse cx="1241.98" cy="1470.21" rx="5.09" ry="10.13" fill="#8f8f8e" stroke="#e2a817" stroke-miterlimit="10" stroke-width="0.62"/><ellipse cx="1369.93" cy="1689.43" rx="5.09" ry="10.13" fill="#8f8f8e" stroke="#e2a817" stroke-miterlimit="10" stroke-width="0.62"/><ellipse cx="1217.87" cy="1768.4" rx="5.09" ry="10.13" fill="#8f8f8e" stroke="#e2a817" stroke-miterlimit="10" stroke-width="0.62"/><ellipse cx="1160.59" cy="1465.01" rx="5.09" ry="10.13" fill="#8f8f8e" stroke="#e2a817" stroke-miterlimit="10" stroke-width="0.62"/><ellipse cx="1021.44" cy="1465.01" rx="5.09" ry="10.13" fill="#8f8f8e" stroke="#e2a817" stroke-miterlimit="10" stroke-width="0.62"/><ellipse cx="806.79" cy="1407.61" rx="5.09" ry="10.13" fill="#8f8f8e" stroke="#e2a817" stroke-miterlimit="10" stroke-width="0.62"/><ellipse cx="549.32" cy="1661.75" rx="5.09" ry="10.13" fill="#8f8f8e" stroke="#e2a817" stroke-miterlimit="10" stroke-width="0.62"/><ellipse cx="748.6" cy="1494.81" rx="5.09" ry="10.13" fill="#8f8f8e" stroke="#e2a817" stroke-miterlimit="10" stroke-width="0.62"/><ellipse cx="1344.16" cy="1448.47" rx="5.09" ry="10.13" fill="#8f8f8e" stroke="#e2a817" stroke-miterlimit="10" stroke-width="0.62"/><ellipse cx="1471.16" cy="1598.93" rx="4.12" ry="8.21" fill="none" stroke="#e2a817" stroke-miterlimit="10" stroke-width="2.02"/><ellipse cx="1321.26" cy="1557.48" rx="4.12" ry="8.21" fill="none" stroke="#e2a817" stroke-miterlimit="10" stroke-width="2.02"/><ellipse cx="1164.71" cy="1497.47" rx="4.12" ry="8.21" fill="none" stroke="#e2a817" stroke-miterlimit="10" stroke-width="2.02"/><ellipse cx="550.85" cy="1516" rx="4.12" ry="8.21" fill="none" stroke="#e2a817" stroke-miterlimit="10" stroke-width="2.02"/><ellipse cx="782.01" cy="1465.01" rx="4.12" ry="8.21" fill="none" stroke="#e2a817" stroke-miterlimit="10" stroke-width="2.02"/><ellipse cx="949.17" cy="1497.24" rx="4.12" ry="8.21" fill="none" stroke="#e2a817" stroke-miterlimit="10" stroke-width="2.02"/><ellipse cx="1204.28" cy="1413.83" rx="4.12" ry="8.21" fill="#8f8f8e" stroke="#e2a817" stroke-miterlimit="10" stroke-width="0.62"/><ellipse cx="1324.21" cy="1458.03" rx="4.12" ry="8.21" fill="#8f8f8e" stroke="#e2a817" stroke-miterlimit="10" stroke-width="0.62"/><ellipse cx="1237.35" cy="1507.79" rx="4.12" ry="8.21" fill="#8f8f8e" stroke="#e2a817" stroke-miterlimit="10" stroke-width="0.62"/><ellipse cx="1185.23" cy="1681.22" rx="4.12" ry="8.21" fill="#8f8f8e" stroke="#e2a817" stroke-miterlimit="10" stroke-width="0.62"/><ellipse cx="1047.55" cy="1579.8" rx="4.12" ry="8.21" fill="#8f8f8e" stroke="#e2a817" stroke-miterlimit="10" stroke-width="0.62"/><ellipse cx="878.06" cy="1438.85" rx="4.12" ry="8.21" fill="#8f8f8e" stroke="#e2a817" stroke-miterlimit="10" stroke-width="0.62"/><ellipse cx="684.94" cy="1529.47" rx="4.12" ry="8.21" fill="#8f8f8e" stroke="#e2a817" stroke-miterlimit="10" stroke-width="0.62"/><ellipse cx="784.89" cy="1578.24" rx="4.12" ry="8.21" fill="#8f8f8e" stroke="#e2a817" stroke-miterlimit="10" stroke-width="0.62"/><ellipse cx="735.26" cy="1376.33" rx="4.12" ry="8.21" fill="#8f8f8e" stroke="#e2a817" stroke-miterlimit="10" stroke-width="0.62"/><ellipse cx="1444.15" cy="1413.83" rx="4.12" ry="8.21" fill="#8f8f8e" stroke="#e2a817" stroke-miterlimit="10" stroke-width="0.62"/><polyline points="791.6 1438.91 698.25 1438.91 608.13 1618.45 571.06 1618.45 549.32 1661.75" fill="none" stroke="#e2a817" stroke-miterlimit="10" stroke-width="4.03"/><polyline points="777.89 1465.01 743.76 1465.01 711.4 1529.47 687.01 1529.47" fill="none" stroke="#e2a817" stroke-miterlimit="10" stroke-width="2.02"/><polyline points="945.05 1497.24 861.38 1497.24 820.73 1578.24 784.89 1578.24" fill="none" stroke="#e2a817" stroke-miterlimit="10" stroke-width="2.02"/><polyline points="1237.35 1507.79 1296.24 1507.79 1318.84 1552.82" fill="none" stroke="#e2a817" stroke-miterlimit="10" stroke-width="2.02"/><polyline points="1241.98 1538.64 1300.11 1654.45 1352.12 1654.45 1369.93 1689.95" fill="none" stroke="#e2a817" stroke-miterlimit="10" stroke-width="4.03"/><line x1="748.6" y1="1494.81" x2="704.12" y2="1583.43" fill="none" stroke="#e2a817" stroke-miterlimit="10" stroke-width="4.03"/><polyline points="1205.11 610.89 1093.77 610.89 1072.86 572.37 1010.2 572.37 985.83 527.48 985.83 326.69" fill="none" stroke="#e2a817" stroke-miterlimit="10" stroke-width="4.47"/><polyline points="951.81 495.83 910.46 495.83 887.64 537.87 701.11 537.87" fill="none" stroke="#e2a817" stroke-miterlimit="10" stroke-width="4.47"/><polyline points="871.08 495.83 677.32 495.83 651.49 448.27 592.27 448.27" fill="none" stroke="#e2a817" stroke-miterlimit="10" stroke-width="2.24"/><polyline points="1018.74 543.97 1144.97 543.97 1164.52 507.96 1205.11 507.96 1249.78 425.69" fill="none" stroke="#e2a817" stroke-miterlimit="10" stroke-width="2.24"/><polyline points="1039.32 516.85 1130.44 516.85 1159.76 462.85" fill="none" stroke="#e2a817" stroke-miterlimit="10" stroke-width="4.47"/><polyline points="962.91 462.85 962.91 280.22 937.68 233.75" fill="none" stroke="#e2a817" stroke-miterlimit="10" stroke-width="4.47"/><polyline points="943.74 375.01 943.74 304.38 902.19 227.85 902.19 164.97" fill="none" stroke="#e2a817" stroke-miterlimit="10" stroke-width="2.24"/><polyline points="743.92 616.26 660.4 616.26 633.01 565.8" fill="none" stroke="#e2a817" stroke-miterlimit="10" stroke-width="4.47"/><polyline points="1398.88 591.65 1468.51 591.65 1501.68 530.56 1569.42 530.56" fill="none" stroke="#e2a817" stroke-miterlimit="10" stroke-width="4.47"/><polyline points="1424.1 553.76 1474.42 461.09 1474.42 363.86" fill="none" stroke="#e2a817" stroke-miterlimit="10" stroke-width="2.24"/><polyline points="1461.44 552.73 1507.99 466.99 1507.99 415.91 1542.24 352.82" fill="none" stroke="#e2a817" stroke-miterlimit="10" stroke-width="2.24"/><polyline points="1183.92 543.97 1270.87 543.97 1296.59 496.6 1385.4 496.6 1421.48 430.14" fill="none" stroke="#e2a817" stroke-miterlimit="10" stroke-width="4.47"/><polyline points="930.62 452.77 814.57 452.77 752.11 337.74 650.9 337.74" fill="none" stroke="#e2a817" stroke-miterlimit="10" stroke-width="4.47"/><path d="M1411.68,587.5c0,4.83-2.12,8.75-4.75,8.75s-4.75-3.92-4.75-8.75,2.13-8.75,4.75-8.75S1411.68,582.67,1411.68,587.5Z" transform="translate(17.17 -161.81)" fill="none" stroke="#e2a817" stroke-miterlimit="10" stroke-width="4.47"/><ellipse cx="646.15" cy="337.74" rx="4.75" ry="8.75" fill="none" stroke="#e2a817" stroke-miterlimit="10" stroke-width="4.47"/><ellipse cx="547.53" cy="233.18" rx="4.75" ry="8.75" fill="none" stroke="#e2a817" stroke-miterlimit="10" stroke-width="4.47"/><ellipse cx="829.27" cy="377.6" rx="4.75" ry="8.75" fill="none" stroke="#e2a817" stroke-miterlimit="10" stroke-width="4.47"/><ellipse cx="696.36" cy="537.87" rx="4.75" ry="8.75" fill="none" stroke="#e2a817" stroke-miterlimit="10" stroke-width="4.47"/><ellipse cx="748.68" cy="616.26" rx="4.75" ry="8.75" fill="none" stroke="#e2a817" stroke-miterlimit="10" stroke-width="4.47"/><path d="M572.48,669.91c0,4.84-2.13,8.75-4.75,8.75s-4.75-3.91-4.75-8.75,2.12-8.75,4.75-8.75S572.48,665.08,572.48,669.91Z" transform="translate(17.17 -161.81)" fill="none" stroke="#e2a817" stroke-miterlimit="10" stroke-width="4.47"/><ellipse cx="1574.18" cy="530.56" rx="4.75" ry="8.75" fill="none" stroke="#e2a817" stroke-miterlimit="10" stroke-width="4.47"/><ellipse cx="1258.29" cy="521.8" rx="4.75" ry="8.75" fill="none" stroke="#e2a817" stroke-miterlimit="10" stroke-width="4.47"/><ellipse cx="933.4" cy="225.6" rx="4.75" ry="8.75" fill="none" stroke="#e2a817" stroke-miterlimit="10" stroke-width="4.47"/><path d="M950.49,633.86c0,4.84-2.12,8.76-4.75,8.76S941,638.7,941,633.86s2.13-8.75,4.75-8.75S950.49,629,950.49,633.86Z" transform="translate(17.17 -161.81)" fill="none" stroke="#e2a817" stroke-miterlimit="10" stroke-width="4.47"/><ellipse cx="1209.87" cy="610.89" rx="4.75" ry="8.75" fill="none" stroke="#e2a817" stroke-miterlimit="10" stroke-width="4.47"/><path d="M1292.24,430.66c0,4.84-2.12,8.76-4.75,8.76s-4.75-3.92-4.75-8.76,2.13-8.75,4.75-8.75S1292.24,425.83,1292.24,430.66Z" transform="translate(17.17 -161.81)" fill="none" stroke="#e2a817" stroke-miterlimit="10" stroke-width="4.47"/><path d="M1022.15,678.66c0,4.84-2.13,8.76-4.75,8.76s-4.76-3.92-4.76-8.76,2.13-8.75,4.76-8.75S1022.15,673.83,1022.15,678.66Z" transform="translate(17.17 -161.81)" fill="none" stroke="#e2a817" stroke-miterlimit="10" stroke-width="4.47"/><ellipse cx="1183.92" cy="543.97" rx="5.87" ry="10.8" fill="#d6a351" stroke="#e2a817" stroke-miterlimit="10" stroke-width="0.69"/><ellipse cx="1159.76" cy="462.85" rx="5.87" ry="10.8" fill="#d1a109"/><path d="M1191,543.53c0,6-2.63,10.8-5.87,10.8s-5.86-4.84-5.86-10.8,2.62-10.81,5.86-10.81S1191,537.56,1191,543.53Z" transform="translate(17.17 -161.81)" fill="#b79b25" stroke="#e2a817" stroke-miterlimit="10" stroke-width="0.69"/><ellipse cx="633.01" cy="565.8" rx="5.87" ry="10.8" fill="#ba8a1e" stroke="#e2a817" stroke-miterlimit="10" stroke-width="0.69"/><path d="M473,591.68c0,6-2.63,10.8-5.87,10.8s-5.86-4.83-5.86-10.8,2.62-10.8,5.86-10.8S473,585.71,473,591.68Z" transform="translate(17.17 -161.81)" fill="#a07b12" stroke="#e2a817" stroke-miterlimit="10" stroke-width="0.69"/><ellipse cx="737.58" cy="307.05" rx="5.87" ry="10.8" fill="#e8c534" stroke="#e2a817" stroke-miterlimit="10" stroke-width="0.69"/><ellipse cx="708.31" cy="207.44" rx="5.87" ry="10.8" fill="#cc9f2f" stroke="#e2a817" stroke-miterlimit="10" stroke-width="0.69"/><ellipse cx="930.62" cy="452.77" rx="5.87" ry="10.8" fill="#eab557" stroke="#e2a817" stroke-miterlimit="10" stroke-width="0.69"/><ellipse cx="1398.88" cy="591.65" rx="5.87" ry="10.8" fill="#e0be2f" stroke="#e2a817" stroke-miterlimit="10" stroke-width="0.69"/><ellipse cx="1423.4" cy="249.43" rx="5.87" ry="10.8" fill="#dbb745" stroke="#e2a817" stroke-miterlimit="10" stroke-width="0.69"/><ellipse cx="950.3" cy="495.83" rx="5.87" ry="10.8" fill="#efc13f" stroke="#e2a817" stroke-miterlimit="10" stroke-width="0.69"/><ellipse cx="985.83" cy="326.69" rx="5.87" ry="10.8" fill="#c19d36" stroke="#e2a817" stroke-miterlimit="10" stroke-width="0.69"/><ellipse cx="875.83" cy="495.83" rx="4.75" ry="8.75" fill="none" stroke="#e2a817" stroke-miterlimit="10" stroke-width="2.24"/><ellipse cx="515.57" cy="458.24" rx="4.75" ry="8.75" fill="none" stroke="#e2a817" stroke-miterlimit="10" stroke-width="2.24"/><path d="M661.69,603.41c0,4.83-2.13,8.75-4.76,8.75s-4.75-3.92-4.75-8.75,2.13-8.76,4.75-8.76S661.69,598.57,661.69,603.41Z" transform="translate(17.17 -161.81)" fill="none" stroke="#e2a817" stroke-miterlimit="10" stroke-width="2.24"/><ellipse cx="829.27" cy="424.09" rx="4.75" ry="8.75" fill="none" stroke="#e2a817" stroke-miterlimit="10" stroke-width="2.24"/><ellipse cx="1420.54" cy="561.1" rx="4.75" ry="8.75" fill="none" stroke="#e2a817" stroke-miterlimit="10" stroke-width="2.24"/><ellipse cx="1350.86" cy="407.76" rx="4.75" ry="8.75" fill="none" stroke="#e2a817" stroke-miterlimit="10" stroke-width="2.24"/><ellipse cx="1458.55" cy="559.15" rx="4.75" ry="8.75" fill="none" stroke="#e2a817" stroke-miterlimit="10" stroke-width="2.24"/><ellipse cx="1636.06" cy="440.11" rx="4.75" ry="8.75" fill="none" stroke="#e2a817" stroke-miterlimit="10" stroke-width="2.24"/><ellipse cx="943.74" cy="383.77" rx="4.75" ry="8.75" fill="none" stroke="#e2a817" stroke-miterlimit="10" stroke-width="2.24"/><path d="M1241.12,580c0,4.83-2.13,8.75-4.75,8.75s-4.75-3.92-4.75-8.75,2.12-8.75,4.75-8.75S1241.12,575.13,1241.12,580Z" transform="translate(17.17 -161.81)" fill="none" stroke="#e2a817" stroke-miterlimit="10" stroke-width="2.24"/><ellipse cx="1257.17" cy="331.97" rx="4.75" ry="8.75" fill="none" stroke="#e2a817" stroke-miterlimit="10" stroke-width="2.24"/><ellipse cx="1018.74" cy="543.97" rx="4.75" ry="8.75" fill="#ea9c1f" stroke="#e2a817" stroke-miterlimit="10" stroke-width="0.69"/><ellipse cx="1048.4" cy="495.83" rx="4.75" ry="8.75" fill="#8f8f8e" stroke="#e2a817" stroke-miterlimit="10" stroke-width="0.69"/><path d="M579.85,610.08c0,4.83-2.13,8.75-4.75,8.75s-4.75-3.92-4.75-8.75,2.12-8.75,4.75-8.75S579.85,605.25,579.85,610.08Z" transform="translate(17.17 -161.81)" fill="#8f8f8e" stroke="#e2a817" stroke-miterlimit="10" stroke-width="0.69"/><path d="M765.52,633.86c0,4.84-2.12,8.76-4.75,8.76S756,638.7,756,633.86s2.13-8.75,4.75-8.75S765.52,629,765.52,633.86Z" transform="translate(17.17 -161.81)" fill="#8f8f8e" stroke="#e2a817" stroke-miterlimit="10" stroke-width="0.69"/><ellipse cx="721.35" cy="569.86" rx="4.75" ry="8.75" fill="#8f8f8e" stroke="#e2a817" stroke-miterlimit="10" stroke-width="0.69"/><ellipse cx="990.93" cy="622.92" rx="4.75" ry="8.75" fill="#8f8f8e" stroke="#e2a817" stroke-miterlimit="10" stroke-width="0.69"/><ellipse cx="662.93" cy="177.09" rx="4.75" ry="8.75" fill="#8f8f8e" stroke="#e2a817" stroke-miterlimit="10" stroke-width="0.69"/><path d="M653.17,752.84c0,4.83-2.13,8.75-4.75,8.75s-4.75-3.92-4.75-8.75,2.12-8.75,4.75-8.75S653.17,748,653.17,752.84Z" transform="translate(17.17 -161.81)" fill="#8f8f8e" stroke="#e2a817" stroke-miterlimit="10" stroke-width="0.69"/><path d="M1529.82,514.63c0,4.84-2.13,8.76-4.75,8.76s-4.75-3.92-4.75-8.76,2.12-8.75,4.75-8.75S1529.82,509.8,1529.82,514.63Z" transform="translate(17.17 -161.81)" fill="#8f8f8e" stroke="#e2a817" stroke-miterlimit="10" stroke-width="0.69"/><path d="M1462,525.67c0,4.84-2.13,8.75-4.75,8.75s-4.75-3.91-4.75-8.75,2.12-8.75,4.75-8.75S1462,520.84,1462,525.67Z" transform="translate(17.17 -161.81)" fill="#8f8f8e" stroke="#e2a817" stroke-miterlimit="10" stroke-width="0.69"/><ellipse cx="1521.7" cy="504.59" rx="4.75" ry="8.75" fill="#8f8f8e" stroke="#e2a817" stroke-miterlimit="10" stroke-width="0.69"/><ellipse cx="1258.29" cy="489.85" rx="4.75" ry="8.75" fill="#af7a1c" stroke="#e2a817" stroke-miterlimit="10" stroke-width="0.69"/><ellipse cx="902.19" cy="164.97" rx="4.75" ry="8.75" fill="#8f8f8e" stroke="#e2a817" stroke-miterlimit="10" stroke-width="0.69"/><polyline points="1048.4 495.83 1122.07 495.83 1168.72 409.92 1214.62 409.92 1253.51 338.29" fill="none" stroke="#e2a817" stroke-miterlimit="10" stroke-width="2.24"/><polyline points="777.94 472.05 688.46 472.05 676.42 449.86" fill="none" stroke="#e2a817" stroke-miterlimit="10" stroke-width="2.24"/><polyline points="1260.98 516.85 1305.51 434.84 1359.23 434.84 1423.4 316.64 1423.4 249.43" fill="none" stroke="#e2a817" stroke-miterlimit="10" stroke-width="4.47"/><polyline points="1521.7 504.59 1600.58 504.59 1632.29 446.18" fill="none" stroke="#e2a817" stroke-miterlimit="10" stroke-width="2.24"/><polyline points="1258.29 489.85 1302.86 407.76 1346.11 407.76" fill="none" stroke="#e2a817" stroke-miterlimit="10" stroke-width="2.24"/><polyline points="667.12 591.03 634.91 531.71 554.92 531.71 519.04 465.64" fill="none" stroke="#e2a817" stroke-miterlimit="10" stroke-width="2.24"/><polyline points="580.15 508.1 564 508.1 521.53 429.87 484.28 429.87" fill="none" stroke="#e2a817" stroke-miterlimit="10" stroke-width="4.47"/><polyline points="826.46 418.15 729.01 238.66 696.36 238.66 662.93 177.09" fill="none" stroke="#e2a817" stroke-miterlimit="10" stroke-width="2.24"/><polyline points="826.46 372.61 736.78 207.44 708.31 207.44" fill="none" stroke="#e2a817" stroke-miterlimit="10" stroke-width="4.47"/><polyline points="737.58 307.05 587.52 307.05 550.17 238.26" fill="none" stroke="#e2a817" stroke-miterlimit="10" stroke-width="4.47"/><polyline points="1202.34 382.95 1264.29 268.85 1301.58 268.85" fill="none" stroke="#e2a817" stroke-miterlimit="10" stroke-width="4.47"/><polyline points="721.35 569.86 780.56 569.86 791.41 589.84 972.97 589.84 990.93 622.92" fill="none" stroke="#e2a817" stroke-miterlimit="10" stroke-width="2.24"/><path d="M1243.5,937,746,1374,662.14,673.77,1243.5,937m4.11-.59L659.36,670.06l84.82,708.54,503.43-442.17Z" transform="translate(17.17 -161.81)" stroke="#161612" stroke-miterlimit="10" stroke-width="1.44" fill="url(#h)"/><path d="M1480.31,1513.65,749.13,1377.26l497.55-437,233.63,573.39m3.7,2.95-236.4-580.17L744.18,1378.6l739.83,138Z" transform="translate(17.17 -161.81)" stroke="#161612" stroke-miterlimit="10" stroke-width="1.44" fill="url(#i)"/><path d="M940.82,1932.12,403.26,1696.79l339.91-314.17,197.65,549.5m4,4.18h0Zm0,0-200.6-557.7-345,318.85L944.78,1936.3Z" transform="translate(17.17 -161.81)" stroke="#161612" stroke-miterlimit="10" stroke-width="1.44" fill="url(#j)"/><path d="M1478.7,1517.86,945.89,1932.57,747.68,1381.51l731,136.35m5.31-1.26-739.83-138,200.6,557.7L1484,1516.6Z" transform="translate(17.17 -161.81)" stroke="#161612" stroke-miterlimit="10" stroke-width="1.44" fill="url(#k)"/><path d="M740.08,1379.3l-340,314.2-216.2-547.95L740.08,1379.3m4.1-.7L179.8,1141.4l219.4,556.05,345-318.85Z" transform="translate(17.17 -161.81)" stroke="#161612" stroke-miterlimit="10" stroke-width="1.44" fill="url(#l)"/><path d="M394.61,1692.11l-267-158.72,53.26-382.94,213.72,541.66m4.59,5.34-219.4-556-54.67,393.11L399.2,1697.45Z" transform="translate(17.17 -161.81)" stroke="#161612" stroke-miterlimit="10" stroke-width="1.44" fill="url(#m)"/><path d="M741.41,1375,183.8,1140.65,657.6,675l83.81,700m2.77,3.59h0Zm0,0L659.36,670.06,179.8,1141.4l564.38,237.2Z" transform="translate(17.17 -161.81)" stroke="#161612" stroke-miterlimit="10" stroke-width="1.44" fill="url(#n)"/><path d="M1302,428.54l-56.3,504.54L665.17,670.24,1302,428.54m2.72-3.41L659.36,670.06l588.25,266.37,57.06-511.3Z" transform="translate(17.17 -161.81)" stroke="#161612" stroke-miterlimit="10" stroke-width="1.44" fill="url(#o)"/><path d="M1787.88,917.8l-537.67,16.33,56.24-504L1787.88,917.8m5.22,2.06L1304.67,425.13l-57.06,511.3,545.49-16.57Z" transform="translate(17.17 -161.81)" stroke="#161612" stroke-miterlimit="10" stroke-width="1.44" fill="url(#p)"/><path d="M1913.83,1476.93l-425.9,37.1,304.28-587.45,121.62,550.35m2.82,2L1793.1,919.86,1484,1516.6l432.64-37.69Z" transform="translate(17.17 -161.81)" stroke="#161612" stroke-miterlimit="10" stroke-width="1.44" fill="url(#q)"/><path d="M1789.3,922.19l-305,588.91L1251,938.54l538.33-16.35m3.8-2.33-545.49,16.57L1484,1516.6,1793.1,919.86Z" transform="translate(17.17 -161.81)" stroke="#161612" stroke-miterlimit="10" stroke-width="1.44" fill="url(#r)"/><path d="M1789.84,913.31,1311.32,428.63l421.52,78.86,57,405.82m3.26,6.55-58.18-414.24-430.25-80.49L1793.1,919.86Z" transform="translate(17.17 -161.81)" stroke="#161612" stroke-miterlimit="10" stroke-width="1.44" fill="url(#s)"/><path d="M1980.42,979.79l-185.2-61.58-56.14-399.67,241.34,461.25m4.63,3.89L1734.92,505.62l58.18,414.24,192,63.82Z" transform="translate(17.17 -161.81)" stroke="#161612" stroke-miterlimit="10" stroke-width="1.44" fill="url(#t)"/><path d="M1982.5,985.18l-66.38,480.58L1796.23,923.24l186.27,61.94m2.55-1.5-192-63.82,123.55,559.05,68.4-495.23Z" transform="translate(17.17 -161.81)" stroke="#161612" stroke-miterlimit="10" stroke-width="1.44" fill="url(#u)"/><path d="M1911,1481.63l-383,411-41.47-374,424.44-37m5.64-2.72L1484,1516.6l42.27,381.24,390.37-418.93Z" transform="translate(17.17 -161.81)" stroke="#161612" stroke-miterlimit="10" stroke-width="1.44" fill="url(#v)"/><path d="M1894.3,1506.23,1672.11,1817l-134.86,72.42,357-383.18m22.35-27.32-390.37,418.93,147.45-79.17,242.92-339.76Z" transform="translate(17.17 -161.81)" stroke="#161612" stroke-miterlimit="10" stroke-width="1.44" fill="url(#w)"/><path d="M1523.71,1895.79l-571.8,37.81,530.24-412.69,41.56,374.88m2.57,2L1484,1516.6,944.78,1936.3l581.5-38.46Z" transform="translate(17.17 -161.81)" stroke="#161612" stroke-miterlimit="10" stroke-width="1.44" fill="url(#x)"/><path d="M1514.33,1900.85l-365.57,167.32-197.21-130.1,562.78-37.22m12-3-581.5,38.46,203.77,134.42,377.73-172.88Z" transform="translate(17.17 -161.81)" stroke="#161612" stroke-miterlimit="10" stroke-width="1.44" fill="url(#y)"/><path d="M1138.63,2066.87l-575.76-93.06,381.28-35.23,194.48,128.29m9.92,3.85L944.78,1936.3l-399.52,36.91,603.29,97.51Z" transform="translate(17.17 -161.81)" stroke="#161612" stroke-miterlimit="10" stroke-width="1.44" fill="url(#z)"/><path d="M936,1934.88l-389.36,36L404.27,1702.11,936,1934.88m8.8,1.42L399.2,1697.45l146.06,275.76,399.52-36.91Z" transform="translate(17.17 -161.81)" stroke="#161612" stroke-miterlimit="10" stroke-width="1.44" fill="url(#aa)"/><path d="M535.54,1959.76,138.25,1544.92,397.42,1699l138.12,260.76m9.72,13.45h0Zm0,0L399.2,1697.45,125.13,1534.51l420.13,438.7Z" transform="translate(17.17 -161.81)" stroke="#161612" stroke-miterlimit="10" stroke-width="1.44" fill="url(#ab)"/><path d="M177.39,1141.89l-52,374L63.17,965.82l114.22,176.07m2.41-.49-120-185.05,65.37,578.16L179.8,1141.4Z" transform="translate(17.17 -161.81)" stroke="#161612" stroke-miterlimit="10" stroke-width="1.44" fill="url(#ac)"/><path d="M259.69,621l-81.24,514.09L62.45,956.3,259.69,621m4.2-11.66-204.13,347,120,185.05,84.09-532.06Z" transform="translate(17.17 -161.81)" stroke="#161612" stroke-miterlimit="10" stroke-width="1.44" fill="url(#ad)"/><path d="M654.58,671.57l-471.4,463.32,82.66-523,388.74,59.69m4.78-1.51L263.89,609.34,179.8,1141.4,659.36,670.06Z" transform="translate(17.17 -161.81)" stroke="#161612" stroke-miterlimit="10" stroke-width="1.44" fill="url(#ae)"/><path d="M732.67,275.09,657.48,667.53,269.64,608l463-332.89M736,269.9,263.89,609.34l395.47,60.72L736,269.9Z" transform="translate(17.17 -161.81)" stroke="#161612" stroke-miterlimit="10" stroke-width="1.44" fill="url(#af)"/><path d="M699.67,293.27,276.32,597.62l94.25-116.26,329.1-188.09M736,269.9,369,479.67,263.89,609.34,736,269.9Z" transform="translate(17.17 -161.81)" stroke="#161612" stroke-miterlimit="10" stroke-width="1.44" fill="url(#ag)"/><path d="M1297.48,425.47l-635.08,241,75.46-393.81,559.62,152.76m7.19-.34L736,269.9,659.36,670.06l645.31-244.93Z" transform="translate(17.17 -161.81)" stroke="#161612" stroke-miterlimit="10" stroke-width="1.44" fill="url(#ah)"/><path d="M1301.58,422,749.37,271.24,1260,237.33,1301.58,422m3.09,3.15L1261.86,235,736,269.9l568.64,155.23Z" transform="translate(17.17 -161.81)" stroke="#161612" stroke-miterlimit="10" stroke-width="1.44" fill="url(#ai)"/><path d="M1722.34,501l-415.72-77.78-41.36-183.72L1722.34,501m12.58,4.61L1261.86,235l42.81,190.14,430.25,80.49Z" transform="translate(17.17 -161.81)" stroke="#161612" stroke-miterlimit="10" stroke-width="1.44" fill="url(#aj)"/><ellipse cx="761.35" cy="1216.79" rx="27.91" ry="26.59" stroke="#161612" stroke-miterlimit="10" stroke-width="1.44" fill="url(#ak)"/><ellipse cx="676.53" cy="508.25" rx="27.91" ry="26.59" stroke="#161612" stroke-miterlimit="10" stroke-width="1.44" fill="url(#al)"/><ellipse cx="1264.78" cy="774.62" rx="27.91" ry="26.59" stroke="#161612" stroke-miterlimit="10" stroke-width="1.44" fill="url(#am)"/><path d="M1511.84,1514.59c1.16,14.65-10.36,27.41-25.73,28.52s-28.77-9.87-29.93-24.51,10.36-27.41,25.73-28.52S1510.68,1500,1511.84,1514.59Z" transform="translate(17.17 -161.81)" stroke="#161612" stroke-miterlimit="10" stroke-width="1.44" fill="url(#an)"/><path d="M972.61,1934.29c1.16,14.65-10.36,27.41-25.73,28.52s-28.78-9.87-29.94-24.51,10.36-27.41,25.73-28.52S971.45,1919.65,972.61,1934.29Z" transform="translate(17.17 -161.81)" stroke="#161612" stroke-miterlimit="10" stroke-width="1.44" fill="url(#ao)"/><path d="M427,1695.45c1.16,14.64-10.35,27.41-25.73,28.51s-28.77-9.86-29.93-24.51,10.36-27.41,25.73-28.51S425.87,1680.8,427,1695.45Z" transform="translate(17.17 -161.81)" stroke="#161612" stroke-miterlimit="10" stroke-width="1.44" fill="url(#ap)"/><path d="M972.61,1934.29c1.16,14.65-10.36,27.41-25.73,28.52s-28.78-9.87-29.94-24.51,10.36-27.41,25.73-28.52S971.45,1919.65,972.61,1934.29Z" transform="translate(17.17 -161.81)" stroke="#161612" stroke-miterlimit="10" stroke-width="1.44" fill="url(#ao)"/><path d="M1511.84,1514.59c1.16,14.65-10.36,27.41-25.73,28.52s-28.77-9.87-29.93-24.51,10.36-27.41,25.73-28.52S1510.68,1500,1511.84,1514.59Z" transform="translate(17.17 -161.81)" stroke="#161612" stroke-miterlimit="10" stroke-width="1.44" fill="url(#an)"/><path d="M207.63,1139.39c1.17,14.65-10.35,27.41-25.72,28.52S153.13,1158,152,1143.4s10.36-27.41,25.73-28.52S206.47,1124.75,207.63,1139.39Z" transform="translate(17.17 -161.81)" stroke="#161612" stroke-miterlimit="10" stroke-width="1.44" fill="url(#as)"/><path d="M427,1695.45c1.16,14.64-10.35,27.41-25.73,28.51s-28.77-9.86-29.93-24.51,10.36-27.41,25.73-28.51S425.87,1680.8,427,1695.45Z" transform="translate(17.17 -161.81)" stroke="#161612" stroke-miterlimit="10" stroke-width="1.44" fill="url(#ap)"/><path d="M427,1695.45c1.16,14.64-10.35,27.41-25.73,28.51s-28.77-9.86-29.93-24.51,10.36-27.41,25.73-28.51S425.87,1680.8,427,1695.45Z" transform="translate(17.17 -161.81)" stroke="#161612" stroke-miterlimit="10" stroke-width="1.44" fill="url(#ap)"/><ellipse cx="142.3" cy="1372.7" rx="27.91" ry="26.59" stroke="#161612" stroke-miterlimit="10" stroke-width="1.44" fill="url(#av)"/><path d="M1332.5,423.12c1.16,14.65-10.36,27.41-25.73,28.52s-28.77-9.87-29.93-24.51,10.36-27.41,25.73-28.52S1331.34,408.48,1332.5,423.12Z" transform="translate(17.17 -161.81)" stroke="#161612" stroke-miterlimit="10" stroke-width="1.44" fill="url(#aw)"/><path d="M1332.5,423.12c1.16,14.65-10.36,27.41-25.73,28.52s-28.77-9.87-29.93-24.51,10.36-27.41,25.73-28.52S1331.34,408.48,1332.5,423.12Z" transform="translate(17.17 -161.81)" stroke="#161612" stroke-miterlimit="10" stroke-width="1.44" fill="url(#aw)"/><path d="M1820.94,917.85c1.16,14.65-10.36,27.41-25.73,28.52s-28.78-9.87-29.94-24.51,10.36-27.41,25.73-28.52S1819.77,903.21,1820.94,917.85Z" transform="translate(17.17 -161.81)" stroke="#161612" stroke-miterlimit="10" stroke-width="1.44" fill="url(#ay)"/><path d="M1944.48,1476.91c1.16,14.64-10.36,27.41-25.73,28.51s-28.77-9.86-29.94-24.51,10.36-27.41,25.73-28.51S1943.32,1462.26,1944.48,1476.91Z" transform="translate(17.17 -161.81)" stroke="#161612" stroke-miterlimit="10" stroke-width="1.44" fill="url(#az)"/><ellipse cx="1752.09" cy="343.81" rx="27.91" ry="26.59" stroke="#161612" stroke-miterlimit="10" stroke-width="1.44" fill="url(#ba)"/><path d="M1332.5,423.12c1.16,14.65-10.36,27.41-25.73,28.52s-28.77-9.87-29.93-24.51,10.36-27.41,25.73-28.52S1331.34,408.48,1332.5,423.12Z" transform="translate(17.17 -161.81)" stroke="#161612" stroke-miterlimit="10" stroke-width="1.44" fill="url(#aw)"/><path d="M2012.88,981.68c1.16,14.64-10.36,27.41-25.73,28.51s-28.77-9.86-29.93-24.51,10.36-27.41,25.73-28.51S2011.72,967,2012.88,981.68Z" transform="translate(17.17 -161.81)" stroke="#161612" stroke-miterlimit="10" stroke-width="1.44" fill="url(#bc)"/><path d="M2012.88,981.68c1.16,14.64-10.36,27.41-25.73,28.51s-28.77-9.86-29.93-24.51,10.36-27.41,25.73-28.51S2011.72,967,2012.88,981.68Z" transform="translate(17.17 -161.81)" stroke="#161612" stroke-miterlimit="10" stroke-width="1.44" fill="url(#bc)"/><ellipse cx="1543.45" cy="1736.03" rx="27.91" ry="26.59" stroke="#161612" stroke-miterlimit="10" stroke-width="1.44" fill="url(#be)"/><path d="M1701.56,1816.67c1.16,14.64-10.36,27.41-25.73,28.51s-28.77-9.87-29.93-24.51,10.36-27.41,25.73-28.52S1700.4,1802,1701.56,1816.67Z" transform="translate(17.17 -161.81)" stroke="#161612" stroke-miterlimit="10" stroke-width="1.44" fill="url(#bf)"/><path d="M972.61,1934.29c1.16,14.65-10.36,27.41-25.73,28.52s-28.78-9.87-29.94-24.51,10.36-27.41,25.73-28.52S971.45,1919.65,972.61,1934.29Z" transform="translate(17.17 -161.81)" stroke="#161612" stroke-miterlimit="10" stroke-width="1.44" fill="url(#ao)"/><path d="M972.61,1934.29c1.16,14.65-10.36,27.41-25.73,28.52s-28.78-9.87-29.94-24.51,10.36-27.41,25.73-28.52S971.45,1919.65,972.61,1934.29Z" transform="translate(17.17 -161.81)" stroke="#161612" stroke-miterlimit="10" stroke-width="1.44" fill="url(#ao)"/><path d="M1176.38,2068.72c1.16,14.64-10.36,27.41-25.73,28.52s-28.77-9.87-29.93-24.52,10.36-27.41,25.73-28.51S1175.22,2054.08,1176.38,2068.72Z" transform="translate(17.17 -161.81)" stroke="#161612" stroke-miterlimit="10" stroke-width="1.44" fill="url(#bi)"/><path d="M972.61,1934.29c1.16,14.65-10.36,27.41-25.73,28.52s-28.78-9.87-29.94-24.51,10.36-27.41,25.73-28.52S971.45,1919.65,972.61,1934.29Z" transform="translate(17.17 -161.81)" stroke="#161612" stroke-miterlimit="10" stroke-width="1.44" fill="url(#ao)"/><path d="M573.09,1971.2c1.17,14.65-10.35,27.41-25.73,28.52s-28.77-9.87-29.93-24.51,10.36-27.41,25.73-28.52S571.93,1956.56,573.09,1971.2Z" transform="translate(17.17 -161.81)" stroke="#161612" stroke-miterlimit="10" stroke-width="1.44" fill="url(#bk)"/><path d="M972.61,1934.29c1.16,14.65-10.36,27.41-25.73,28.52s-28.78-9.87-29.94-24.51,10.36-27.41,25.73-28.52S971.45,1919.65,972.61,1934.29Z" transform="translate(17.17 -161.81)" stroke="#161612" stroke-miterlimit="10" stroke-width="1.44" fill="url(#ao)"/><path d="M427,1695.45c1.16,14.64-10.35,27.41-25.73,28.51s-28.77-9.86-29.93-24.51,10.36-27.41,25.73-28.51S425.87,1680.8,427,1695.45Z" transform="translate(17.17 -161.81)" stroke="#161612" stroke-miterlimit="10" stroke-width="1.44" fill="url(#ap)"/><path d="M427,1695.45c1.16,14.64-10.35,27.41-25.73,28.51s-28.77-9.86-29.93-24.51,10.36-27.41,25.73-28.51S425.87,1680.8,427,1695.45Z" transform="translate(17.17 -161.81)" stroke="#161612" stroke-miterlimit="10" stroke-width="1.44" fill="url(#ap)"/><path d="M87.59,954.35c1.16,14.64-10.36,27.41-25.73,28.52S33.08,973,31.92,958.36,42.28,931,57.65,929.84,86.43,939.71,87.59,954.35Z" transform="translate(17.17 -161.81)" stroke="#161612" stroke-miterlimit="10" stroke-width="1.44" fill="url(#bo)"/><path d="M291.72,607.34c1.16,14.64-10.36,27.41-25.73,28.51s-28.78-9.87-29.94-24.51,10.36-27.41,25.73-28.52S290.56,592.69,291.72,607.34Z" transform="translate(17.17 -161.81)" stroke="#161612" stroke-miterlimit="10" stroke-width="1.44" fill="url(#bp)"/><path d="M291.72,607.34c1.16,14.64-10.36,27.41-25.73,28.51s-28.78-9.87-29.94-24.51,10.36-27.41,25.73-28.52S290.56,592.69,291.72,607.34Z" transform="translate(17.17 -161.81)" stroke="#161612" stroke-miterlimit="10" stroke-width="1.44" fill="url(#bp)"/><ellipse cx="753.2" cy="108.09" rx="27.91" ry="26.59" stroke="#161612" stroke-miterlimit="10" stroke-width="1.44" fill="url(#br)"/><path d="M291.72,607.34c1.16,14.64-10.36,27.41-25.73,28.51s-28.78-9.87-29.94-24.51,10.36-27.41,25.73-28.52S290.56,592.69,291.72,607.34Z" transform="translate(17.17 -161.81)" stroke="#161612" stroke-miterlimit="10" stroke-width="1.44" fill="url(#bp)"/><path d="M291.72,607.34c1.16,14.64-10.36,27.41-25.73,28.51s-28.78-9.87-29.94-24.51,10.36-27.41,25.73-28.52S290.56,592.69,291.72,607.34Z" transform="translate(17.17 -161.81)" stroke="#161612" stroke-miterlimit="10" stroke-width="1.44" opacity="0.5" fill="url(#bp)"/><path d="M396.83,477.67c1.16,14.64-10.36,27.41-25.73,28.51s-28.77-9.86-29.94-24.51,10.36-27.41,25.73-28.51S395.67,463,396.83,477.67Z" transform="translate(17.17 -161.81)" stroke="#161612" stroke-miterlimit="10" stroke-width="1.44" fill="url(#bu)"/><path d="M1332.5,423.12c1.16,14.65-10.36,27.41-25.73,28.52s-28.77-9.87-29.93-24.51,10.36-27.41,25.73-28.52S1331.34,408.48,1332.5,423.12Z" transform="translate(17.17 -161.81)" stroke="#161612" stroke-miterlimit="10" stroke-width="1.44" fill="url(#aw)"/><path d="M1332.5,423.12c1.16,14.65-10.36,27.41-25.73,28.52s-28.77-9.87-29.93-24.51,10.36-27.41,25.73-28.52S1331.34,408.48,1332.5,423.12Z" transform="translate(17.17 -161.81)" stroke="#161612" stroke-miterlimit="10" stroke-width="1.44" fill="url(#aw)"/><path d="M1289.69,233c1.16,14.65-10.35,27.41-25.73,28.52S1235.19,251.63,1234,237s10.36-27.41,25.73-28.52S1288.53,218.34,1289.69,233Z" transform="translate(17.17 -161.81)" stroke="#161612" stroke-miterlimit="10" stroke-width="1.44" fill="url(#bx)"/><path d="M1332.5,423.12c1.16,14.65-10.36,27.41-25.73,28.52s-28.77-9.87-29.93-24.51,10.36-27.41,25.73-28.52S1331.34,408.48,1332.5,423.12Z" transform="translate(17.17 -161.81)" stroke="#161612" stroke-miterlimit="10" stroke-width="1.44" opacity="0.5" fill="url(#aw)"/><path d="M1153.51,871,831,1474,480.48,813.77l673,57.23m1.51-.8L478.83,812.7,831,1476l324-605.8Z" transform="translate(17.17 -161.81)" stroke="#161612" stroke-miterlimit="10" stroke-width="1.44" fill="url(#bz)"/><path d="M1604.65,1355.11,832.7,1474.79l322.54-603,449.41,483.28m1.89.64L1155,870.2,831,1476l775.57-120.25Z" transform="translate(17.17 -161.81)" stroke="#161612" stroke-miterlimit="10" stroke-width="1.44" fill="url(#ca)"/><path d="M1236.78,1950.85l-620.35-45,214.76-428.09,405.59,473.14m2.18,1.09h0Zm0,0L831,1476l-216,430.62,624,45.32Z" transform="translate(17.17 -161.81)" stroke="#161612" stroke-miterlimit="10" stroke-width="1.44" fill="url(#cb)"/><path d="M1604.66,1357l-365.83,593.34-406-473.67L1604.66,1357m1.88-1.23L831,1476l408,475.94,367.58-596.19Z" transform="translate(17.17 -161.81)" stroke="#161612" stroke-miterlimit="10" stroke-width="1.44" fill="url(#cc)"/><path d="M829.47,1476.84,614.7,1905,191.44,1439.83l638,37m1.5-.84L189.2,1438.77l425.74,467.85L831,1476Z" transform="translate(17.17 -161.81)" stroke="#161612" stroke-miterlimit="10" stroke-width="1.44" fill="url(#cd)"/><path d="M612.33,1905.16l-326.39-64.07L191,1442.16l421.33,463m2.61,1.46L189.2,1438.77l95.94,403.1,329.8,64.75Z" transform="translate(17.17 -161.81)" stroke="#161612" stroke-miterlimit="10" stroke-width="1.44" fill="url(#ce)"/><path d="M829.34,1475l-638.69-37L478.89,814.86,829.34,1475m1.63,1h0Zm0,0L478.83,812.7,189.2,1438.77,831,1476Z" transform="translate(17.17 -161.81)" stroke="#161612" stroke-miterlimit="10" stroke-width="1.44" fill="url(#cf)"/><path d="M1153.75,869.16,481.13,812,1016,352.47l137.79,516.69m1.27,1h0Zm0,0L1016.5,350.76,478.83,812.7,1155,870.2Z" transform="translate(17.17 -161.81)" stroke="#161612" stroke-miterlimit="10" stroke-width="1.44" fill="url(#cg)"/><path d="M1679.55,665.81,1155.69,868.94,1018,352.48l661.59,313.33m2.36.08L1016.5,350.76,1155,870.2l526.89-204.31Z" transform="translate(17.17 -161.81)" stroke="#161612" stroke-miterlimit="10" stroke-width="1.44" fill="url(#ch)"/><path d="M2013.7,1169.34l-406,184.87,74.89-685.57,331.12,500.7m1.4.39L1681.91,665.89l-75.37,689.86,408.56-186Z" transform="translate(17.17 -161.81)" stroke="#161612" stroke-miterlimit="10" stroke-width="1.44" fill="url(#ci)"/><path d="M1680.77,667.33l-75,686.24-449.15-483,524.11-203.23m1.14-1.44L1155,870.2l451.52,485.55,75.37-689.86Z" transform="translate(17.17 -161.81)" stroke="#161612" stroke-miterlimit="10" stroke-width="1.44" fill="url(#cj)"/><path d="M1679.64,663.78l-660-312.57,447.46-69.12,212.54,381.69m2.27,2.11L1467.63,281.07,1016.5,350.76l665.41,315.13Z" transform="translate(17.17 -161.81)" stroke="#161612" stroke-miterlimit="10" stroke-width="1.44" fill="url(#ck)"/><path d="M1891.37,661.2,1682.48,665,1471.22,285.55,1891.37,661.2m2.4.88-426.14-381,214.28,384.82,211.86-3.81Z" transform="translate(17.17 -161.81)" stroke="#161612" stroke-miterlimit="10" stroke-width="1.44" fill="url(#cl)"/><path d="M2012.89,1164.66,1683.64,666.78,1893,663l119.89,501.64m2.21,5.07L1893.77,662.08l-211.86,3.81,333.19,503.84Z" transform="translate(17.17 -161.81)" stroke="#161612" stroke-miterlimit="10" stroke-width="1.44" fill="url(#cm)"/><path d="M2013.31,1171.57l-220.68,540-184.78-355.36,405.46-184.61m1.79-1.84-408.56,186,186.19,358.07,222.37-544.09Z" transform="translate(17.17 -161.81)" stroke="#161612" stroke-miterlimit="10" stroke-width="1.44" fill="url(#cn)"/><path d="M2010.51,1183.49l-104.63,401.66L1795.74,1709l214.77-525.52m4.59-13.76-222.37,544.09,114-128.23,108.33-415.86Z" transform="translate(17.17 -161.81)" stroke="#161612" stroke-miterlimit="10" stroke-width="1.44" fill="url(#co)"/><path d="M1791.42,1713.37,1241.34,1949.9l365.13-592.2,185,355.67m1.31.45-186.19-358.07L1239,1951.94l553.77-238.12Z" transform="translate(17.17 -161.81)" stroke="#161612" stroke-miterlimit="10" stroke-width="1.44" fill="url(#cp)"/><path d="M1788.52,1716.65,1488.91,2012l-247-60.33,546.64-235m4.21-2.83L1239,1951.94l250.26,61.12,303.51-299.24Z" transform="translate(17.17 -161.81)" stroke="#161612" stroke-miterlimit="10" stroke-width="1.44" fill="url(#cq)"/><path d="M1484.75,2012.92,869.47,2123.59l369.6-170.67,245.68,60m4.47.14L1239,1951.94,862.49,2125.78l626.73-112.72Z" transform="translate(17.17 -161.81)" stroke="#161612" stroke-miterlimit="10" stroke-width="1.44" fill="url(#cr)"/><path d="M1235.31,1952.6,862.66,2124.68l-245-216.94,617.68,44.86m3.65-.66-624-45.32,247.55,219.16L1239,1951.94Z" transform="translate(17.17 -161.81)" stroke="#161612" stroke-miterlimit="10" stroke-width="1.44" fill="url(#cs)"/><path d="M856.64,2121.87,291.85,1844.13l322.63,63.34,242.16,214.4m5.85,3.91v0Zm0,0L614.94,1906.62l-329.8-64.75,577.35,283.91Z" transform="translate(17.17 -161.81)" stroke="#161612" stroke-miterlimit="10" stroke-width="1.44" fill="url(#ct)"/><path d="M282.41,1834.57l-278.09-532,184,136.77,94.08,395.27m2.73,7.3-95.94-403.1L1.54,1299.3l283.6,542.57Z" transform="translate(17.17 -161.81)" stroke="#161612" stroke-miterlimit="10" stroke-width="1.44" fill="url(#cu)"/><path d="M187.71,1436.49,2.59,1298.91l66.75-404,118.37,541.62m1.49,2.28-120-549L1.54,1299.3,189.2,1438.77Z" transform="translate(17.17 -161.81)" stroke="#161612" stroke-miterlimit="10" stroke-width="1.44" fill="url(#cv)"/><path d="M477.19,814,189.53,1435.76,70.35,890.45,477.19,814m1.64-1.25-409.63,77,120,549L478.83,812.7Z" transform="translate(17.17 -161.81)" stroke="#161612" stroke-miterlimit="10" stroke-width="1.44" fill="url(#cw)"/><path d="M477.71,812,71.25,888.4,401.19,397.62,477.71,812m1.12.73L401.71,395.13,69.2,889.73l409.63-77Z" transform="translate(17.17 -161.81)" stroke="#161612" stroke-miterlimit="10" stroke-width="1.44" fill="url(#cx)"/><path d="M391.05,409.28,72.28,883.43l51.26-156.25,267.51-317.9m10.66-14.15-279,331.61-53.47,163,332.51-494.6Z" transform="translate(17.17 -161.81)" stroke="#161612" stroke-miterlimit="10" stroke-width="1.44" fill="url(#cy)"/><path d="M1013.75,351.89l-534.27,459L402.85,396l610.9-44.09m2.75-1.13L401.71,395.13,478.83,812.7,1016.5,350.76Z" transform="translate(17.17 -161.81)" stroke="#161612" stroke-miterlimit="10" stroke-width="1.44" fill="url(#cz)"/><path d="M1014.82,350,407.13,393.81,902,180.85,1014.82,350m1.68.8L902.41,179.67,401.71,395.13l614.79-44.37Z" transform="translate(17.17 -161.81)" stroke="#161612" stroke-miterlimit="10" stroke-width="1.44" fill="url(#da)"/><path d="M1462,281l-445,68.75L904.42,181,1462,281m5.62.07L902.41,179.67,1016.5,350.76l451.13-69.69Z" transform="translate(17.17 -161.81)" stroke="#161612" stroke-miterlimit="10" stroke-width="1.44" fill="url(#db)"/><path d="M837.22,1492.07c-9.32,3.29-19.67-1.25-23.12-10.12s1.3-18.74,10.62-22,19.67,1.24,23.12,10.12S846.53,1488.78,837.22,1492.07Z" transform="translate(17.17 -161.81)" stroke="#161612" stroke-miterlimit="10" stroke-width="1.44" fill="url(#dc)"/><path d="M485.07,828.77c-9.31,3.29-19.66-1.24-23.11-10.12s1.3-18.73,10.62-22,19.66,1.24,23.12,10.12S494.39,825.48,485.07,828.77Z" transform="translate(17.17 -161.81)" stroke="#161612" stroke-miterlimit="10" stroke-width="1.44" fill="url(#dd)"/><path d="M1161.27,886.27c-9.32,3.29-19.67-1.24-23.12-10.12s1.31-18.73,10.62-22,19.67,1.24,23.12,10.12S1170.59,883,1161.27,886.27Z" transform="translate(17.17 -161.81)" stroke="#161612" stroke-miterlimit="10" stroke-width="1.44" fill="url(#de)"/><path d="M1161.27,886.27c-9.32,3.29-19.67-1.24-23.12-10.12s1.31-18.73,10.62-22,19.67,1.24,23.12,10.12S1170.59,883,1161.27,886.27Z" transform="translate(17.17 -161.81)" stroke="#161612" stroke-miterlimit="10" stroke-width="1.44" fill="url(#de)"/><path d="M837.22,1492.07c-9.32,3.29-19.67-1.25-23.12-10.12s1.3-18.74,10.62-22,19.67,1.24,23.12,10.12S846.53,1488.78,837.22,1492.07Z" transform="translate(17.17 -161.81)" stroke="#161612" stroke-miterlimit="10" stroke-width="1.44" fill="url(#dc)"/><path d="M1612.79,1371.83c-9.32,3.28-19.66-1.25-23.12-10.12s1.31-18.74,10.63-22,19.66,1.25,23.11,10.12S1622.11,1368.54,1612.79,1371.83Z" transform="translate(17.17 -161.81)" stroke="#161612" stroke-miterlimit="10" stroke-width="1.44" fill="url(#dh)"/><path d="M837.22,1492.07c-9.32,3.29-19.67-1.25-23.12-10.12s1.3-18.74,10.62-22,19.67,1.24,23.12,10.12S846.53,1488.78,837.22,1492.07Z" transform="translate(17.17 -161.81)" stroke="#161612" stroke-miterlimit="10" stroke-width="1.44" fill="url(#dc)"/><path d="M1245.21,1968c-9.32,3.28-19.67-1.25-23.12-10.12s1.31-18.74,10.62-22,19.67,1.24,23.12,10.11S1254.53,1964.72,1245.21,1968Z" transform="translate(17.17 -161.81)" stroke="#161612" stroke-miterlimit="10" stroke-width="1.44" fill="url(#dj)"/><path d="M621.19,1922.69c-9.32,3.29-19.67-1.24-23.12-10.12s1.31-18.74,10.62-22,19.67,1.24,23.12,10.12S630.5,1919.4,621.19,1922.69Z" transform="translate(17.17 -161.81)" stroke="#161612" stroke-miterlimit="10" stroke-width="1.44" fill="url(#dk)"/><path d="M1245.21,1968c-9.32,3.28-19.67-1.25-23.12-10.12s1.31-18.74,10.62-22,19.67,1.24,23.12,10.11S1254.53,1964.72,1245.21,1968Z" transform="translate(17.17 -161.81)" stroke="#161612" stroke-miterlimit="10" stroke-width="1.44" fill="url(#dj)"/><path d="M837.22,1492.07c-9.32,3.29-19.67-1.25-23.12-10.12s1.3-18.74,10.62-22,19.67,1.24,23.12,10.12S846.53,1488.78,837.22,1492.07Z" transform="translate(17.17 -161.81)" stroke="#161612" stroke-miterlimit="10" stroke-width="1.44" fill="url(#dc)"/><path d="M1612.79,1371.83c-9.32,3.28-19.66-1.25-23.12-10.12s1.31-18.74,10.63-22,19.66,1.25,23.11,10.12S1622.11,1368.54,1612.79,1371.83Z" transform="translate(17.17 -161.81)" stroke="#161612" stroke-miterlimit="10" stroke-width="1.44" fill="url(#dh)"/><path d="M837.22,1492.07c-9.32,3.29-19.67-1.25-23.12-10.12s1.3-18.74,10.62-22,19.67,1.24,23.12,10.12S846.53,1488.78,837.22,1492.07Z" transform="translate(17.17 -161.81)" stroke="#161612" stroke-miterlimit="10" stroke-width="1.44" fill="url(#dc)"/><path d="M195.44,1454.84c-9.31,3.29-19.66-1.24-23.11-10.12s1.3-18.73,10.62-22,19.67,1.25,23.12,10.12S204.76,1451.56,195.44,1454.84Z" transform="translate(17.17 -161.81)" stroke="#161612" stroke-miterlimit="10" stroke-width="1.44" fill="url(#dp)"/><path d="M621.19,1922.69c-9.32,3.29-19.67-1.24-23.12-10.12s1.31-18.74,10.62-22,19.67,1.24,23.12,10.12S630.5,1919.4,621.19,1922.69Z" transform="translate(17.17 -161.81)" stroke="#161612" stroke-miterlimit="10" stroke-width="1.44" fill="url(#dk)"/><path d="M621.19,1922.69c-9.32,3.29-19.67-1.24-23.12-10.12s1.31-18.74,10.62-22,19.67,1.24,23.12,10.12S630.5,1919.4,621.19,1922.69Z" transform="translate(17.17 -161.81)" stroke="#161612" stroke-miterlimit="10" stroke-width="1.44" fill="url(#dk)"/><path d="M195.44,1454.84c-9.31,3.29-19.66-1.24-23.11-10.12s1.3-18.73,10.62-22,19.67,1.25,23.12,10.12S204.76,1451.56,195.44,1454.84Z" transform="translate(17.17 -161.81)" stroke="#161612" stroke-miterlimit="10" stroke-width="1.44" fill="url(#dp)"/><path d="M291.38,1857.94c-9.31,3.29-19.66-1.24-23.11-10.12s1.3-18.73,10.62-22,19.67,1.24,23.12,10.12S300.7,1854.66,291.38,1857.94Z" transform="translate(17.17 -161.81)" stroke="#161612" stroke-miterlimit="10" stroke-width="1.44" fill="url(#dt)"/><path d="M837.22,1492.07c-9.32,3.29-19.67-1.25-23.12-10.12s1.3-18.74,10.62-22,19.67,1.24,23.12,10.12S846.53,1488.78,837.22,1492.07Z" transform="translate(17.17 -161.81)" stroke="#161612" stroke-miterlimit="10" stroke-width="1.44" fill="url(#dc)"/><path d="M195.44,1454.84c-9.31,3.29-19.66-1.24-23.11-10.12s1.3-18.73,10.62-22,19.67,1.25,23.12,10.12S204.76,1451.56,195.44,1454.84Z" transform="translate(17.17 -161.81)" stroke="#161612" stroke-miterlimit="10" stroke-width="1.44" fill="url(#dp)"/><path d="M485.07,828.77c-9.31,3.29-19.66-1.24-23.11-10.12s1.3-18.73,10.62-22,19.66,1.24,23.12,10.12S494.39,825.48,485.07,828.77Z" transform="translate(17.17 -161.81)" stroke="#161612" stroke-miterlimit="10" stroke-width="1.44" fill="url(#dd)"/><path d="M1161.27,886.27c-9.32,3.29-19.67-1.24-23.12-10.12s1.31-18.73,10.62-22,19.67,1.24,23.12,10.12S1170.59,883,1161.27,886.27Z" transform="translate(17.17 -161.81)" stroke="#161612" stroke-miterlimit="10" stroke-width="1.44" fill="url(#de)"/><path d="M485.07,828.77c-9.31,3.29-19.66-1.24-23.11-10.12s1.3-18.73,10.62-22,19.66,1.24,23.12,10.12S494.39,825.48,485.07,828.77Z" transform="translate(17.17 -161.81)" stroke="#161612" stroke-miterlimit="10" stroke-width="1.44" fill="url(#dd)"/><path d="M1022.75,366.83c-9.32,3.29-19.67-1.24-23.12-10.12s1.31-18.73,10.63-22,19.66,1.24,23.11,10.12S1032.07,363.55,1022.75,366.83Z" transform="translate(17.17 -161.81)" stroke="#161612" stroke-miterlimit="10" stroke-width="1.44" fill="url(#dz)"/><path d="M1022.75,366.83c-9.32,3.29-19.67-1.24-23.12-10.12s1.31-18.73,10.63-22,19.66,1.24,23.11,10.12S1032.07,363.55,1022.75,366.83Z" transform="translate(17.17 -161.81)" stroke="#161612" stroke-miterlimit="10" stroke-width="1.44" fill="url(#dz)"/><path d="M1161.27,886.27c-9.32,3.29-19.67-1.24-23.12-10.12s1.31-18.73,10.62-22,19.67,1.24,23.12,10.12S1170.59,883,1161.27,886.27Z" transform="translate(17.17 -161.81)" stroke="#161612" stroke-miterlimit="10" stroke-width="1.44" fill="url(#de)"/><path d="M1688.15,682c-9.31,3.29-19.66-1.24-23.11-10.12s1.3-18.73,10.62-22,19.67,1.24,23.12,10.12S1697.47,678.68,1688.15,682Z" transform="translate(17.17 -161.81)" stroke="#161612" stroke-miterlimit="10" stroke-width="1.44" fill="url(#ec)"/><path d="M1612.79,1371.83c-9.32,3.28-19.66-1.25-23.12-10.12s1.31-18.74,10.63-22,19.66,1.25,23.11,10.12S1622.11,1368.54,1612.79,1371.83Z" transform="translate(17.17 -161.81)" stroke="#161612" stroke-miterlimit="10" stroke-width="1.44" fill="url(#dh)"/><path d="M1688.15,682c-9.31,3.29-19.66-1.24-23.11-10.12s1.3-18.73,10.62-22,19.67,1.24,23.12,10.12S1697.47,678.68,1688.15,682Z" transform="translate(17.17 -161.81)" stroke="#161612" stroke-miterlimit="10" stroke-width="1.44" fill="url(#ec)"/><path d="M2021.35,1185.8c-9.32,3.28-19.67-1.25-23.12-10.12s1.3-18.74,10.62-22,19.67,1.24,23.12,10.12S2030.66,1182.51,2021.35,1185.8Z" transform="translate(17.17 -161.81)" stroke="#161612" stroke-miterlimit="10" stroke-width="1.44" fill="url(#ef)"/><path d="M1688.15,682c-9.31,3.29-19.66-1.24-23.11-10.12s1.3-18.73,10.62-22,19.67,1.24,23.12,10.12S1697.47,678.68,1688.15,682Z" transform="translate(17.17 -161.81)" stroke="#161612" stroke-miterlimit="10" stroke-width="1.44" fill="url(#ec)"/><path d="M1612.79,1371.83c-9.32,3.28-19.66-1.25-23.12-10.12s1.31-18.74,10.63-22,19.66,1.25,23.11,10.12S1622.11,1368.54,1612.79,1371.83Z" transform="translate(17.17 -161.81)" stroke="#161612" stroke-miterlimit="10" stroke-width="1.44" fill="url(#dh)"/><path d="M1161.27,886.27c-9.32,3.29-19.67-1.24-23.12-10.12s1.31-18.73,10.62-22,19.67,1.24,23.12,10.12S1170.59,883,1161.27,886.27Z" transform="translate(17.17 -161.81)" stroke="#161612" stroke-miterlimit="10" stroke-width="1.44" fill="url(#de)"/><path d="M1688.15,682c-9.31,3.29-19.66-1.24-23.11-10.12s1.3-18.73,10.62-22,19.67,1.24,23.12,10.12S1697.47,678.68,1688.15,682Z" transform="translate(17.17 -161.81)" stroke="#161612" stroke-miterlimit="10" stroke-width="1.44" fill="url(#ec)"/><path d="M1473.88,297.14c-9.32,3.29-19.67-1.25-23.12-10.12s1.31-18.74,10.63-22,19.66,1.24,23.11,10.12S1483.2,293.85,1473.88,297.14Z" transform="translate(17.17 -161.81)" stroke="#161612" stroke-miterlimit="10" stroke-width="1.44" fill="url(#ek)"/><path d="M1022.75,366.83c-9.32,3.29-19.67-1.24-23.12-10.12s1.31-18.73,10.63-22,19.66,1.24,23.11,10.12S1032.07,363.55,1022.75,366.83Z" transform="translate(17.17 -161.81)" stroke="#161612" stroke-miterlimit="10" stroke-width="1.44" fill="url(#dz)"/><path d="M1473.88,297.14c-9.32,3.29-19.67-1.25-23.12-10.12s1.31-18.74,10.63-22,19.66,1.24,23.11,10.12S1483.2,293.85,1473.88,297.14Z" transform="translate(17.17 -161.81)" stroke="#161612" stroke-miterlimit="10" stroke-width="1.44" fill="url(#ek)"/><path d="M1688.15,682c-9.31,3.29-19.66-1.24-23.11-10.12s1.3-18.73,10.62-22,19.67,1.24,23.12,10.12S1697.47,678.68,1688.15,682Z" transform="translate(17.17 -161.81)" stroke="#161612" stroke-miterlimit="10" stroke-width="1.44" fill="url(#ec)"/><path d="M1900,678.16c-9.32,3.28-19.67-1.25-23.12-10.12s1.31-18.74,10.63-22,19.66,1.25,23.11,10.12S1909.34,674.87,1900,678.16Z" transform="translate(17.17 -161.81)" stroke="#161612" stroke-miterlimit="10" stroke-width="1.44" fill="url(#eo)"/><path d="M1900,678.16c-9.32,3.28-19.67-1.25-23.12-10.12s1.31-18.74,10.63-22,19.66,1.25,23.11,10.12S1909.34,674.87,1900,678.16Z" transform="translate(17.17 -161.81)" stroke="#161612" stroke-miterlimit="10" stroke-width="1.44" fill="url(#eo)"/><path d="M1688.15,682c-9.31,3.29-19.66-1.24-23.11-10.12s1.3-18.73,10.62-22,19.67,1.24,23.12,10.12S1697.47,678.68,1688.15,682Z" transform="translate(17.17 -161.81)" stroke="#161612" stroke-miterlimit="10" stroke-width="1.44" fill="url(#ec)"/><path d="M2021.35,1185.8c-9.32,3.28-19.67-1.25-23.12-10.12s1.3-18.74,10.62-22,19.67,1.24,23.12,10.12S2030.66,1182.51,2021.35,1185.8Z" transform="translate(17.17 -161.81)" stroke="#161612" stroke-miterlimit="10" stroke-width="1.44" fill="url(#ef)"/><path d="M2021.35,1185.8c-9.32,3.28-19.67-1.25-23.12-10.12s1.3-18.74,10.62-22,19.67,1.24,23.12,10.12S2030.66,1182.51,2021.35,1185.8Z" transform="translate(17.17 -161.81)" stroke="#161612" stroke-miterlimit="10" stroke-width="1.44" fill="url(#ef)"/><path d="M1612.79,1371.83c-9.32,3.28-19.66-1.25-23.12-10.12s1.31-18.74,10.63-22,19.66,1.25,23.11,10.12S1622.11,1368.54,1612.79,1371.83Z" transform="translate(17.17 -161.81)" stroke="#161612" stroke-miterlimit="10" stroke-width="1.44" fill="url(#dh)"/><path d="M1799,1729.89c-9.32,3.29-19.67-1.24-23.12-10.12s1.31-18.73,10.62-22,19.67,1.24,23.12,10.12S1808.3,1726.61,1799,1729.89Z" transform="translate(17.17 -161.81)" stroke="#161612" stroke-miterlimit="10" stroke-width="1.44" fill="url(#eu)"/><path d="M1799,1729.89c-9.32,3.29-19.67-1.24-23.12-10.12s1.31-18.73,10.62-22,19.67,1.24,23.12,10.12S1808.3,1726.61,1799,1729.89Z" transform="translate(17.17 -161.81)" stroke="#161612" stroke-miterlimit="10" stroke-width="1.44" fill="url(#eu)"/><path d="M2021.35,1185.8c-9.32,3.28-19.67-1.25-23.12-10.12s1.3-18.74,10.62-22,19.67,1.24,23.12,10.12S2030.66,1182.51,2021.35,1185.8Z" transform="translate(17.17 -161.81)" stroke="#161612" stroke-miterlimit="10" stroke-width="1.44" fill="url(#ef)"/><path d="M1913,1601.66c-9.32,3.28-19.67-1.25-23.12-10.12s1.3-18.74,10.62-22,19.67,1.24,23.12,10.11S1922.33,1598.37,1913,1601.66Z" transform="translate(17.17 -161.81)" stroke="#161612" stroke-miterlimit="10" stroke-width="1.44" fill="url(#ex)"/><path d="M1245.21,1968c-9.32,3.28-19.67-1.25-23.12-10.12s1.31-18.74,10.62-22,19.67,1.24,23.12,10.11S1254.53,1964.72,1245.21,1968Z" transform="translate(17.17 -161.81)" stroke="#161612" stroke-miterlimit="10" stroke-width="1.44" fill="url(#dj)"/><path d="M1799,1729.89c-9.32,3.29-19.67-1.24-23.12-10.12s1.31-18.73,10.62-22,19.67,1.24,23.12,10.12S1808.3,1726.61,1799,1729.89Z" transform="translate(17.17 -161.81)" stroke="#161612" stroke-miterlimit="10" stroke-width="1.44" fill="url(#eu)"/><path d="M1612.79,1371.83c-9.32,3.28-19.66-1.25-23.12-10.12s1.31-18.74,10.63-22,19.66,1.25,23.11,10.12S1622.11,1368.54,1612.79,1371.83Z" transform="translate(17.17 -161.81)" stroke="#161612" stroke-miterlimit="10" stroke-width="1.44" fill="url(#dh)"/><path d="M1799,1729.89c-9.32,3.29-19.67-1.24-23.12-10.12s1.31-18.73,10.62-22,19.67,1.24,23.12,10.12S1808.3,1726.61,1799,1729.89Z" transform="translate(17.17 -161.81)" stroke="#161612" stroke-miterlimit="10" stroke-width="1.44" fill="url(#eu)"/><path d="M1245.21,1968c-9.32,3.28-19.67-1.25-23.12-10.12s1.31-18.74,10.62-22,19.67,1.24,23.12,10.11S1254.53,1964.72,1245.21,1968Z" transform="translate(17.17 -161.81)" stroke="#161612" stroke-miterlimit="10" stroke-width="1.44" fill="url(#dj)"/><path d="M1495.47,2029.13c-9.32,3.28-19.67-1.24-23.12-10.12s1.3-18.74,10.62-22,19.67,1.24,23.12,10.12S1504.78,2025.84,1495.47,2029.13Z" transform="translate(17.17 -161.81)" stroke="#161612" stroke-miterlimit="10" stroke-width="1.44" fill="url(#fd)"/><path d="M1495.47,2029.13c-9.32,3.28-19.67-1.24-23.12-10.12s1.3-18.74,10.62-22,19.67,1.24,23.12,10.12S1504.78,2025.84,1495.47,2029.13Z" transform="translate(17.17 -161.81)" stroke="#161612" stroke-miterlimit="10" stroke-width="1.44" fill="url(#fd)"/><path d="M1245.21,1968c-9.32,3.28-19.67-1.25-23.12-10.12s1.31-18.74,10.62-22,19.67,1.24,23.12,10.11S1254.53,1964.72,1245.21,1968Z" transform="translate(17.17 -161.81)" stroke="#161612" stroke-miterlimit="10" stroke-width="1.44" fill="url(#dj)"/><path d="M868.74,2141.85c-9.32,3.29-19.67-1.24-23.12-10.12s1.3-18.73,10.62-22,19.67,1.25,23.12,10.12S878.05,2138.57,868.74,2141.85Z" transform="translate(17.17 -161.81)" stroke="#161612" stroke-miterlimit="10" stroke-width="1.44" fill="url(#fg)"/><path d="M868.74,2141.85c-9.32,3.29-19.67-1.24-23.12-10.12s1.3-18.73,10.62-22,19.67,1.25,23.12,10.12S878.05,2138.57,868.74,2141.85Z" transform="translate(17.17 -161.81)" stroke="#161612" stroke-miterlimit="10" stroke-width="1.44" fill="url(#fg)"/><path d="M1245.21,1968c-9.32,3.28-19.67-1.25-23.12-10.12s1.31-18.74,10.62-22,19.67,1.24,23.12,10.11S1254.53,1964.72,1245.21,1968Z" transform="translate(17.17 -161.81)" stroke="#161612" stroke-miterlimit="10" stroke-width="1.44" fill="url(#dj)"/><path d="M621.19,1922.69c-9.32,3.29-19.67-1.24-23.12-10.12s1.31-18.74,10.62-22,19.67,1.24,23.12,10.12S630.5,1919.4,621.19,1922.69Z" transform="translate(17.17 -161.81)" stroke="#161612" stroke-miterlimit="10" stroke-width="1.44" fill="url(#dk)"/><path d="M621.19,1922.69c-9.32,3.29-19.67-1.24-23.12-10.12s1.31-18.74,10.62-22,19.67,1.24,23.12,10.12S630.5,1919.4,621.19,1922.69Z" transform="translate(17.17 -161.81)" stroke="#161612" stroke-miterlimit="10" stroke-width="1.44" fill="url(#dk)"/><path d="M868.74,2141.85c-9.32,3.29-19.67-1.24-23.12-10.12s1.3-18.73,10.62-22,19.67,1.25,23.12,10.12S878.05,2138.57,868.74,2141.85Z" transform="translate(17.17 -161.81)" stroke="#161612" stroke-miterlimit="10" stroke-width="1.44" fill="url(#fg)"/><path d="M291.38,1857.94c-9.31,3.29-19.66-1.24-23.11-10.12s1.3-18.73,10.62-22,19.67,1.24,23.12,10.12S300.7,1854.66,291.38,1857.94Z" transform="translate(17.17 -161.81)" stroke="#161612" stroke-miterlimit="10" stroke-width="1.44" fill="url(#dt)"/><path d="M291.38,1857.94c-9.31,3.29-19.66-1.24-23.11-10.12s1.3-18.73,10.62-22,19.67,1.24,23.12,10.12S300.7,1854.66,291.38,1857.94Z" transform="translate(17.17 -161.81)" stroke="#161612" stroke-miterlimit="10" stroke-width="1.44" fill="url(#dt)"/><path d="M195.44,1454.84c-9.31,3.29-19.66-1.24-23.11-10.12s1.3-18.73,10.62-22,19.67,1.25,23.12,10.12S204.76,1451.56,195.44,1454.84Z" transform="translate(17.17 -161.81)" stroke="#161612" stroke-miterlimit="10" stroke-width="1.44" fill="url(#dp)"/><path d="M7.79,1315.37c-9.32,3.29-19.67-1.24-23.12-10.12s1.31-18.73,10.63-22,19.66,1.24,23.11,10.12S17.11,1312.09,7.79,1315.37Z" transform="translate(17.17 -161.81)" stroke="#161612" stroke-miterlimit="10" stroke-width="1.44" fill="url(#fp)"/><path d="M7.79,1315.37c-9.32,3.29-19.67-1.24-23.12-10.12s1.31-18.73,10.63-22,19.66,1.24,23.11,10.12S17.11,1312.09,7.79,1315.37Z" transform="translate(17.17 -161.81)" stroke="#161612" stroke-miterlimit="10" stroke-width="1.44" fill="url(#fp)"/><path d="M195.44,1454.84c-9.31,3.29-19.66-1.24-23.11-10.12s1.3-18.73,10.62-22,19.67,1.25,23.12,10.12S204.76,1451.56,195.44,1454.84Z" transform="translate(17.17 -161.81)" stroke="#161612" stroke-miterlimit="10" stroke-width="1.44" fill="url(#dp)"/><path d="M75.45,905.8c-9.32,3.28-19.67-1.25-23.12-10.12s1.31-18.74,10.63-22,19.66,1.24,23.11,10.11S84.77,902.51,75.45,905.8Z" transform="translate(17.17 -161.81)" stroke="#161612" stroke-miterlimit="10" stroke-width="1.44" fill="url(#fs)"/><path d="M75.45,905.8c-9.32,3.28-19.67-1.25-23.12-10.12s1.31-18.74,10.63-22,19.66,1.24,23.11,10.11S84.77,902.51,75.45,905.8Z" transform="translate(17.17 -161.81)" stroke="#161612" stroke-miterlimit="10" stroke-width="1.44" fill="url(#fs)"/><path d="M195.44,1454.84c-9.31,3.29-19.66-1.24-23.11-10.12s1.3-18.73,10.62-22,19.67,1.25,23.12,10.12S204.76,1451.56,195.44,1454.84Z" transform="translate(17.17 -161.81)" stroke="#161612" stroke-miterlimit="10" stroke-width="1.44" fill="url(#dp)"/><path d="M485.07,828.77c-9.31,3.29-19.66-1.24-23.11-10.12s1.3-18.73,10.62-22,19.66,1.24,23.12,10.12S494.39,825.48,485.07,828.77Z" transform="translate(17.17 -161.81)" stroke="#161612" stroke-miterlimit="10" stroke-width="1.44" fill="url(#dd)"/><path d="M408,411.2c-9.32,3.29-19.67-1.24-23.12-10.12s1.31-18.73,10.62-22,19.67,1.24,23.12,10.12S417.28,407.92,408,411.2Z" transform="translate(17.17 -161.81)" stroke="#161612" stroke-miterlimit="10" stroke-width="1.44" fill="url(#fw)"/><path d="M485.07,828.77c-9.31,3.29-19.66-1.24-23.11-10.12s1.3-18.73,10.62-22,19.66,1.24,23.12,10.12S494.39,825.48,485.07,828.77Z" transform="translate(17.17 -161.81)" stroke="#161612" stroke-miterlimit="10" stroke-width="1.44" fill="url(#dd)"/><path d="M75.45,905.8c-9.32,3.28-19.67-1.25-23.12-10.12s1.31-18.74,10.63-22,19.66,1.24,23.11,10.11S84.77,902.51,75.45,905.8Z" transform="translate(17.17 -161.81)" stroke="#161612" stroke-miterlimit="10" stroke-width="1.44" fill="url(#fs)"/><path d="M75.45,905.8c-9.32,3.28-19.67-1.25-23.12-10.12s1.31-18.74,10.63-22,19.66,1.24,23.11,10.11S84.77,902.51,75.45,905.8Z" transform="translate(17.17 -161.81)" stroke="#161612" stroke-miterlimit="10" stroke-width="1.44" fill="url(#fs)"/><path d="M408,411.2c-9.32,3.29-19.67-1.24-23.12-10.12s1.31-18.73,10.62-22,19.67,1.24,23.12,10.12S417.28,407.92,408,411.2Z" transform="translate(17.17 -161.81)" stroke="#161612" stroke-miterlimit="10" stroke-width="1.44" fill="url(#fw)"/><path d="M128.92,742.81c-9.32,3.28-19.67-1.25-23.12-10.12s1.31-18.74,10.62-22,19.67,1.24,23.12,10.11S138.24,739.52,128.92,742.81Z" transform="translate(17.17 -161.81)" stroke="#161612" stroke-miterlimit="10" stroke-width="1.44" fill="url(#gb)"/><path d="M485.07,828.77c-9.31,3.29-19.66-1.24-23.11-10.12s1.3-18.73,10.62-22,19.66,1.24,23.12,10.12S494.39,825.48,485.07,828.77Z" transform="translate(17.17 -161.81)" stroke="#161612" stroke-miterlimit="10" stroke-width="1.44" fill="url(#dd)"/><path d="M408,411.2c-9.32,3.29-19.67-1.24-23.12-10.12s1.31-18.73,10.62-22,19.67,1.24,23.12,10.12S417.28,407.92,408,411.2Z" transform="translate(17.17 -161.81)" stroke="#161612" stroke-miterlimit="10" stroke-width="1.44" fill="url(#fw)"/><path d="M1022.75,366.83c-9.32,3.29-19.67-1.24-23.12-10.12s1.31-18.73,10.63-22,19.66,1.24,23.11,10.12S1032.07,363.55,1022.75,366.83Z" transform="translate(17.17 -161.81)" stroke="#161612" stroke-miterlimit="10" stroke-width="1.44" fill="url(#dz)"/><path d="M408,411.2c-9.32,3.29-19.67-1.24-23.12-10.12s1.31-18.73,10.62-22,19.67,1.24,23.12,10.12S417.28,407.92,408,411.2Z" transform="translate(17.17 -161.81)" stroke="#161612" stroke-miterlimit="10" stroke-width="1.44" fill="url(#fw)"/><path d="M1022.75,366.83c-9.32,3.29-19.67-1.24-23.12-10.12s1.31-18.73,10.63-22,19.66,1.24,23.11,10.12S1032.07,363.55,1022.75,366.83Z" transform="translate(17.17 -161.81)" stroke="#161612" stroke-miterlimit="10" stroke-width="1.44" fill="url(#dz)"/><path d="M908.66,195.74c-9.32,3.29-19.67-1.24-23.12-10.11s1.3-18.74,10.62-22,19.67,1.25,23.12,10.12S918,192.46,908.66,195.74Z" transform="translate(17.17 -161.81)" stroke="#161612" stroke-miterlimit="10" stroke-width="1.44" fill="url(#gh)"/><path d="M908.66,195.74c-9.32,3.29-19.67-1.24-23.12-10.11s1.3-18.74,10.62-22,19.67,1.25,23.12,10.12S918,192.46,908.66,195.74Z" transform="translate(17.17 -161.81)" stroke="#161612" stroke-miterlimit="10" stroke-width="1.44" fill="url(#gh)"/><path d="M1022.75,366.83c-9.32,3.29-19.67-1.24-23.12-10.12s1.31-18.73,10.63-22,19.66,1.24,23.11,10.12S1032.07,363.55,1022.75,366.83Z" transform="translate(17.17 -161.81)" stroke="#161612" stroke-miterlimit="10" stroke-width="1.44" fill="url(#dz)"/><path d="M1473.88,297.14c-9.32,3.29-19.67-1.25-23.12-10.12s1.31-18.74,10.63-22,19.66,1.24,23.11,10.12S1483.2,293.85,1473.88,297.14Z" transform="translate(17.17 -161.81)" stroke="#161612" stroke-miterlimit="10" stroke-width="1.44" fill="url(#ek)"/></svg>